<?xml version="1.0" encoding="UTF-8"?>
<svg version="1.1" xmlns="http://www.w3.org/2000/svg" width="512" height="512">
<path d="M0 0 C0.74883453 -0.00570007 1.49766907 -0.01140015 2.26919556 -0.01727295 C3.85083631 -0.02667245 5.43249621 -0.0332367 7.01416016 -0.03710938 C9.37309514 -0.0467083 11.73111653 -0.07773414 14.08984375 -0.109375 C43.59979992 -0.31507784 72.63665057 9.04774628 96.0390625 27.203125 C96.96589844 27.90953125 97.89273437 28.6159375 98.84765625 29.34375 C118.65846658 44.96759474 134.84610505 64.36957035 138.0390625 90.203125 C138.13720162 92.82430542 138.19596834 95.41942819 138.20019531 98.04003906 C138.20516022 98.79082733 138.21012512 99.5416156 138.21524048 100.31515503 C138.22976165 102.78302966 138.23665136 105.25083977 138.2421875 107.71875 C138.24501488 108.57122063 138.24784225 109.42369125 138.25075531 110.30199432 C138.265716 114.82372848 138.27496205 119.34543106 138.27929688 123.8671875 C138.28474131 128.48265638 138.30869215 133.09782423 138.33726883 137.71319962 C138.35613133 141.30829638 138.36111341 144.90332449 138.36263275 148.49846649 C138.36561283 150.19650649 138.37347855 151.89454671 138.38681793 153.59253693 C138.66388438 191.61007075 126.43042432 224.23492889 99.7890625 251.765625 C81.00767799 270.203125 81.00767799 270.203125 74.0390625 270.203125 C74.0390625 282.743125 74.0390625 295.283125 74.0390625 308.203125 C77.9990625 308.863125 81.9590625 309.523125 86.0390625 310.203125 C88.73905421 310.74831826 91.43472783 311.31565888 94.12402344 311.91137695 C94.84134644 312.06944824 95.55866943 312.22751953 96.29772949 312.39038086 C98.62372945 312.90400984 100.94864029 313.42236258 103.2734375 313.94140625 C104.92187703 314.30779624 106.57033525 314.67410213 108.21881104 315.04032898 C111.65843957 315.80541157 115.09746055 316.57316079 118.53613281 317.3425293 C122.89563609 318.31745728 127.25712311 319.28317068 131.61919785 320.24651814 C135.02134929 320.99943816 138.42207353 321.75865804 141.82245636 322.51952171 C143.42756676 322.87766811 145.03315794 323.2336681 146.6392746 323.58727455 C177.20502399 330.3264674 203.89496172 341.19574654 221.75964355 368.46430969 C230.28942965 382.127101 235.19977919 397.57311025 240.2578125 412.75390625 C241.00828364 414.98785567 241.75914574 417.22167378 242.51037598 419.45536804 C244.07047324 424.10303204 245.62235365 428.75334292 247.16894531 433.40551758 C249.14447024 439.34404234 251.14602836 445.27342986 253.15441132 451.20090961 C254.70768578 455.79775444 256.24433466 460.40003041 257.77638245 465.00398827 C258.50743323 467.19259998 259.2441804 469.37931813 259.98692322 471.56398964 C268.76722556 497.44366965 268.76722556 497.44366965 264.3515625 506.765625 C261.24971029 510.0351449 258.65555452 511.96163023 254.13671875 512.63671875 C249.45514296 512.64274394 245.882513 512.56460379 241.5390625 510.703125 C236.01705754 505.18112004 233.92241472 497.40336845 231.55908203 490.12207031 C231.23651428 489.14531342 230.91394653 488.16855652 230.581604 487.16220093 C229.8860419 485.05370134 229.19321871 482.94429663 228.50287247 480.83408356 C227.40653538 477.48438198 226.30202049 474.13747704 225.19528198 470.79119873 C222.0514759 461.28059128 218.92294533 451.76497749 215.79833984 442.24804688 C213.88217911 436.41370782 211.957049 430.58238741 210.0267601 424.75270844 C209.29689171 422.54209464 208.5705179 420.33032364 207.84784317 418.11734772 C200.40182333 395.31693635 192.38526915 376.16919095 170.51171875 363.8359375 C160.3235246 359.045538 148.87508093 356.91212961 138.0390625 354.203125 C138.0390625 365.093125 138.0390625 375.983125 138.0390625 387.203125 C142.9890625 388.688125 142.9890625 388.688125 148.0390625 390.203125 C156.30137537 393.71673743 162.72005603 398.90579608 169.0390625 405.203125 C169.67714844 405.81800781 170.31523437 406.43289063 170.97265625 407.06640625 C183.55372309 420.15183658 186.5130096 437.36326028 186.47265625 454.82421875 C186.47723307 456.1813228 186.48254301 457.53842456 186.48854065 458.89552307 C186.49738568 461.71161448 186.49514252 464.52742086 186.48510742 467.34350586 C186.47353391 470.94020499 186.49399854 474.53593439 186.52302456 478.13250637 C186.54140164 480.9233261 186.54109283 483.71391285 186.53538704 486.50477791 C186.53516091 488.47118936 186.55200042 490.43757915 186.56919861 492.40391541 C186.48315912 503.39965091 186.48315912 503.39965091 182.0390625 508.203125 C176.47339411 513.62423057 169.8385119 512.7964087 162.5390625 512.703125 C161.32863281 512.71859375 160.11820312 512.7340625 158.87109375 512.75 C147.90628996 512.70175004 147.90628996 512.70175004 143.0390625 508.203125 C139.49325214 504.16823735 138.73546071 500.63651091 138.82421875 495.26171875 C139.30099224 490.69336183 141.26469136 487.90194774 144.6015625 484.890625 C148.37971354 482.27498197 150.45554852 482.10348339 155.0390625 482.203125 C154.99454384 476.84975597 154.92433482 471.49752572 154.83154297 466.14477539 C154.80352785 464.32846195 154.78221776 462.512031 154.76806641 460.69555664 C154.65573914 447.08523662 154.23946593 435.48994765 144.32421875 425.1484375 C137.37167127 419.22985862 129.51454353 416.84244425 120.5 416.9921875 C111.46089464 417.76696796 104.400091 421.42676046 98.31640625 428.08984375 C92.45215048 435.42376559 90.59795579 442.52197986 90.52734375 451.734375 C90.50939255 452.61089722 90.49144135 453.48741943 90.47294617 454.39050293 C90.41921741 457.16132953 90.38506877 459.93198765 90.3515625 462.703125 C90.31835629 464.59377326 90.28386362 466.48439939 90.24804688 468.375 C90.16351295 472.98425265 90.09652459 477.5934586 90.0390625 482.203125 C90.96332031 482.16703125 91.88757813 482.1309375 92.83984375 482.09375 C97.00783443 482.23624541 98.81744063 483.62582751 102.0390625 486.203125 C105.80273971 490.47467191 106.17619123 494.64084077 106.0390625 500.203125 C104.96014981 505.29906082 102.33942222 508.33621852 98.0390625 511.203125 C93.61475407 513.41527921 87.64724739 512.47786709 82.7890625 512.515625 C81.56058594 512.54462891 80.33210938 512.57363281 79.06640625 512.60351562 C67.5871768 512.68435527 67.5871768 512.68435527 63.0390625 508.203125 C57.58692688 502.38152347 58.47425316 495.62180758 58.54296875 488.0390625 C58.5428135 486.6414889 58.54132023 485.24391487 58.53855896 483.84634399 C58.5371772 480.91934121 58.54968506 477.99282967 58.57250977 475.06591797 C58.60073609 471.3475301 58.59819758 467.62996737 58.58541965 463.91152 C58.57839703 461.02350049 58.58632844 458.13566518 58.59867668 455.24766922 C58.60528427 453.22065528 58.60108376 451.19361515 58.59657288 449.16659546 C58.77722295 431.20643581 64.38302111 416.17069971 77.0390625 403.203125 C85.70579789 395.5074524 95.59361308 389.49221488 107.0390625 387.203125 C107.0390625 374.003125 107.0390625 360.803125 107.0390625 347.203125 C101.25375 346.0584375 101.25375 346.0584375 95.3515625 344.890625 C87.31405897 343.30005301 79.32215801 341.66352244 71.39453125 339.5859375 C68.72209778 339.15161166 67.53625981 339.16076283 65.0390625 340.203125 C63.17443159 342.5910163 63.17443159 342.5910163 61.52734375 345.66015625 C61.03894516 346.50981209 61.03894516 346.50981209 60.54067993 347.37663269 C59.83585271 348.6057527 59.13678762 349.83819085 58.44284058 351.07348633 C56.96298785 353.70716813 55.45555729 356.32465598 53.94892883 358.94308472 C53.16478497 360.3060246 52.38199712 361.66974546 51.60050964 363.03421021 C47.51087675 370.1628336 43.25762146 377.18833262 38.9765625 384.203125 C38.29956299 385.31534424 37.62256348 386.42756348 36.92504883 387.57348633 C35.62141378 389.71241049 34.31517493 391.84975026 33.00610352 393.98535156 C31.62284158 396.24815315 30.24849179 398.51490383 28.88256836 400.78808594 C28.17174527 401.96291061 27.46089009 403.13771587 26.75 404.3125 C26.11755371 405.36405273 25.48510742 406.41560547 24.83349609 407.49902344 C21.93853329 411.86155514 19.07929927 414.52304608 14.0390625 416.203125 C9.37211728 416.74537959 5.96135202 416.6729706 1.7265625 414.515625 C-2.53482989 410.84884551 -5.43317553 406.62352784 -8.25390625 401.79296875 C-8.87587891 400.73416504 -9.49785156 399.67536133 -10.13867188 398.58447266 C-10.80189453 397.44800293 -11.46511719 396.3115332 -12.1484375 395.140625 C-13.57685492 392.70811809 -15.008832 390.27771694 -16.44140625 387.84765625 C-16.80974579 387.22231995 -17.17808533 386.59698364 -17.55758667 385.95269775 C-21.63403617 379.04264966 -25.79147265 372.18232416 -29.9609375 365.328125 C-30.6418042 364.20784912 -31.3226709 363.08757324 -32.02416992 361.93334961 C-36.64489623 354.34122939 -41.29669662 346.76856092 -45.9609375 339.203125 C-46.97124023 339.40675659 -46.97124023 339.40675659 -48.00195312 339.61450195 C-51.15472912 340.24930169 -54.30783201 340.882464 -57.4609375 341.515625 C-58.51925781 341.72896484 -59.57757813 341.94230469 -60.66796875 342.16210938 C-69.42053137 343.91786295 -78.18477393 345.55759433 -86.9609375 347.203125 C-86.9609375 371.293125 -86.9609375 395.383125 -86.9609375 420.203125 C-84.6509375 420.863125 -82.3409375 421.523125 -79.9609375 422.203125 C-67.80776399 429.09950162 -60.29568577 439.05004764 -55.9609375 452.203125 C-52.85509454 464.36767658 -54.37058872 478.03346628 -60.50390625 488.94921875 C-62.20076664 491.50033379 -63.99719683 493.85228145 -65.9609375 496.203125 C-66.55777344 496.92371094 -67.15460938 497.64429688 -67.76953125 498.38671875 C-75.23939184 506.60201241 -86.2457174 511.96812974 -97.37890625 512.5390625 C-113.83609188 512.85274493 -125.51162558 509.2178684 -137.7734375 497.828125 C-147.27036939 487.83958723 -150.50077782 474.62152583 -150.23828125 461.1953125 C-149.75836385 451.29612072 -145.94881758 442.94009637 -139.9609375 435.203125 C-139.2390625 434.171875 -138.5171875 433.140625 -137.7734375 432.078125 C-132.65029682 426.12330564 -125.24185447 422.63009732 -117.9609375 420.203125 C-117.9609375 398.423125 -117.9609375 376.643125 -117.9609375 354.203125 C-143.3368817 361.03510998 -163.93306043 367.18491569 -177.30517578 389.88574219 C-181.04359761 397.37581529 -183.40549536 405.45750942 -186.0234375 413.390625 C-186.70233467 415.41565764 -187.38237883 417.44030605 -188.06347656 419.46459961 C-191.54427163 429.83406439 -194.96923942 440.22203514 -198.39396191 450.61012173 C-200.29144397 456.36522685 -202.19404915 462.11862721 -204.09882069 467.87132359 C-205.50116804 472.10950117 -206.89384453 476.35070595 -208.27923298 480.59445572 C-209.15252028 483.26375732 -210.03323708 485.93056728 -210.91573524 488.59683609 C-211.5216292 490.43538105 -212.11827703 492.27696501 -212.71464539 494.11862183 C-216.94936306 506.86408607 -216.94936306 506.86408607 -222.33984375 511.05078125 C-227.08922853 513.13881181 -231.88341901 512.82233457 -236.9609375 512.203125 C-241.59799902 510.00662218 -243.62468358 507.68446354 -245.9609375 503.203125 C-248.65169203 491.75734878 -242.45575724 479.03662256 -238.83984375 468.38671875 C-238.09788802 466.1629307 -237.35718254 463.93872515 -236.61766052 461.71412659 C-235.0660618 457.05968824 -233.5022136 452.40961169 -231.92895508 447.76245117 C-229.93186995 441.86146181 -227.96116786 435.9520887 -225.99926853 430.03932095 C-224.47181061 425.44344606 -222.93224923 420.85169589 -221.38902092 416.26109505 C-220.65921047 414.08686498 -219.93249115 411.91159439 -219.20916939 409.73519707 C-215.68406646 399.15466245 -212.00371112 388.75979409 -207.24975586 378.66040039 C-206.89401017 377.90449584 -206.53826448 377.14859129 -206.17173862 376.36978054 C-195.49194412 354.49218286 -175.48567799 338.6079215 -152.9609375 330.203125 C-149.57705888 329.16421225 -146.16004481 328.31473195 -142.71875 327.48828125 C-141.19656609 327.1154451 -141.19656609 327.1154451 -139.64363098 326.7350769 C-125.32548927 323.26869097 -110.93671987 320.0973738 -96.5534668 316.91455078 C-92.41022972 315.99769739 -88.26832569 315.07496608 -84.12674236 314.15067482 C-80.90772381 313.43293616 -77.68804323 312.71820576 -74.46814919 312.00440598 C-72.93811145 311.66484099 -71.40828135 311.324339 -69.87866783 310.98286819 C-67.76312166 310.51105939 -65.64671803 310.04331223 -63.5300293 309.57666016 C-62.33000778 309.3105191 -61.12998627 309.04437805 -59.89360046 308.77017212 C-56.9609375 308.203125 -56.9609375 308.203125 -53.9609375 308.203125 C-53.9609375 295.663125 -53.9609375 283.123125 -53.9609375 270.203125 C-55.6109375 269.543125 -57.2609375 268.883125 -58.9609375 268.203125 C-66.59906333 263.31050062 -73.37710703 257.41136783 -79.9609375 251.203125 C-80.62609375 250.60242188 -81.29125 250.00171875 -81.9765625 249.3828125 C-103.32531466 229.33581352 -115.86246463 199.13659664 -117.9609375 170.203125 C-118.13012943 164.2411977 -118.15071942 158.28044605 -118.1640625 152.31640625 C-118.16830357 151.0310904 -118.16830357 151.0310904 -118.17263031 149.71980858 C-118.18755686 145.18437779 -118.19682738 140.64897828 -118.20117188 136.11352539 C-118.20664486 131.46847765 -118.23066705 126.82372472 -118.25914383 122.17876911 C-118.27791547 118.57101139 -118.28298348 114.96332264 -118.28450775 111.35552025 C-118.28750247 109.64497455 -118.29542094 107.9344291 -118.30869293 106.22393227 C-118.5033331 79.21001102 -109.78402741 59.44398277 -90.9609375 40.203125 C-90.12780029 39.33929199 -90.12780029 39.33929199 -89.27783203 38.45800781 C-66.58432184 15.25061048 -32.57887802 0.19836221 0 0 Z M-70.8984375 63.765625 C-80.61476746 73.8973371 -87.12127733 84.80598272 -87.05859375 99.03515625 C-87.05537109 100.32744141 -87.05214844 101.61972656 -87.04882812 102.95117188 C-87.04047415 104.30599026 -87.03200922 105.66080797 -87.0234375 107.015625 C-87.0184175 108.38997235 -87.01385547 109.76432145 -87.00976562 111.13867188 C-86.99799418 114.49353424 -86.98155033 117.84830721 -86.9609375 121.203125 C-81.34756251 116.52053923 -76.24565542 111.53147799 -71.2109375 106.23828125 C-66.37429765 101.28288462 -61.86079648 97.08530192 -54.6015625 96.72265625 C-49.48200707 96.97041157 -45.3263939 98.79443077 -40.7109375 100.890625 C-33.48901874 103.97820736 -26.36497485 106.36744422 -18.7109375 108.140625 C-17.85467773 108.33938232 -16.99841797 108.53813965 -16.11621094 108.74291992 C12.36397585 115.05100691 41.81267263 110.59869533 67.9597168 98.00170898 C71.64774028 96.58530358 75.17790057 96.50310518 79.0390625 97.203125 C88.61399474 101.88873014 96.47139436 111.53155406 103.88671875 119.11328125 C105.6586361 121.31922723 105.6586361 121.31922723 107.0390625 121.203125 C107.11411962 117.25627509 107.16808465 113.30971073 107.20385742 109.36230469 C107.22607729 107.37159595 107.26422845 105.38108532 107.30273438 103.390625 C107.43130428 86.4193971 101.68271761 75.24146595 90.01953125 63.15625 C69.0490728 42.0827595 41.10055876 30.78597672 11.45898438 30.19189453 C-19.9960833 30.33787245 -48.24620218 42.03640097 -70.8984375 63.765625 Z M-50.9609375 130.203125 C-51.36296387 130.62086182 -51.76499023 131.03859863 -52.17919922 131.46899414 C-62.87517505 142.52658856 -72.56517312 151.26418798 -86.9609375 157.203125 C-88.15067467 180.46909642 -79.94816054 203.45998697 -64.9609375 221.203125 C-63.99414062 222.38841797 -63.99414062 222.38841797 -63.0078125 223.59765625 C-46.417978 243.10607274 -22.707043 254.84738576 2.75390625 256.984375 C29.45266685 258.63822672 53.85744694 249.92266465 74.27734375 232.70703125 C92.55228059 216.13809983 104.53617594 193.94319595 107.0390625 169.203125 C107.17646065 165.19567891 107.1669568 161.21047959 107.0390625 157.203125 C106.03488281 156.76484375 105.03070313 156.3265625 103.99609375 155.875 C93.60285968 151.1324563 85.98664179 145.33230559 78.0390625 137.203125 C76.75000627 135.91145339 75.4596292 134.62109866 74.16796875 133.33203125 C73.125 132.2890625 72.08203125 131.24609375 71.0390625 130.203125 C70.11963867 130.4976355 70.11963867 130.4976355 69.18164062 130.7980957 C28.17321259 143.84518626 -10.093629 144.18594308 -50.9609375 130.203125 Z M-22.9609375 283.203125 C-25.98897408 308.52584712 -20.89890731 323.88338951 -6.44140625 344.59960938 C-2.81028816 349.81899195 0.43479806 355.26517358 3.7265625 360.703125 C5.48871327 363.5419288 7.26191052 366.37369277 9.0390625 369.203125 C13.04503092 367.86780219 13.48248349 366.20481351 15.55859375 362.5703125 C15.89417297 361.99111053 16.2297522 361.41190857 16.57550049 360.81515503 C18.05993497 358.24727848 19.51918255 355.66535983 20.98019409 353.08410645 C22.12627434 351.06171651 23.27634714 349.04169574 24.4296875 347.0234375 C24.81403458 346.35022461 25.19838165 345.67701172 25.59437561 344.98339844 C27.94777869 340.91911811 30.4713459 337.09744731 33.2734375 333.3203125 C45.04037462 317.09161713 44.64674345 302.48292957 43.0390625 283.203125 C42.00910156 283.40808594 40.97914063 283.61304688 39.91796875 283.82421875 C18.64562504 287.91612205 -1.71178526 287.83343496 -22.9609375 283.203125 Z M-115.3359375 454.703125 C-118.53454079 458.60302633 -119.31694365 461.99470689 -119.2421875 467.078125 C-118.61463654 471.81962117 -116.00658137 475.12843547 -112.7109375 478.515625 C-108.45491302 481.12727638 -104.69834624 482.56501972 -99.65625 481.8984375 C-93.78135794 480.29619421 -90.21613758 477.31843941 -86.9609375 472.203125 C-85.31613134 467.26870651 -85.3707332 462.93902001 -87.0234375 458.078125 C-89.95287337 453.73122016 -93.04620775 450.13007086 -98.171875 448.5 C-105.30519084 447.38009376 -110.50944551 449.29195109 -115.3359375 454.703125 Z " fill="#000000" transform="translate(245.9609375,-0.203125)"/>
</svg>
