<?xml version="1.0" encoding="UTF-8"?>
<svg version="1.1" xmlns="http://www.w3.org/2000/svg" width="512" height="512">
<path d="M0 0 C1.71622551 -0.00525372 3.43244813 -0.01153647 5.14866638 -0.01878357 C8.71961197 -0.02910642 12.29015703 -0.02474281 15.86108398 -0.01000977 C20.3986824 0.00719585 24.9350164 -0.0163817 29.4724741 -0.05149937 C33.00823585 -0.07363119 36.54370207 -0.0719946 40.07951164 -0.06373405 C41.7509799 -0.06292373 43.42247191 -0.06960787 45.09387398 -0.08450508 C61.32763422 -0.20710955 73.94091811 2.99298931 85.89453125 14.6640625 C93.13073041 22.29031701 96.91941233 30.27056552 98.74609375 40.56640625 C99.85404297 40.76943359 99.85404297 40.76943359 100.984375 40.9765625 C114.23348659 43.78800041 124.83709278 51.10641392 132.49609375 62.31640625 C138.05006685 72.18323275 139.30891034 81.65899437 139.1796875 92.8359375 C139.18198138 94.1696587 139.18675718 95.50337766 139.19386292 96.83708191 C139.2152732 101.72749989 139.19815966 106.61755874 139.17236328 111.50793457 C139.15434681 114.99692527 139.14545335 118.48527754 139.16261292 121.97428894 C139.17375774 124.57643047 139.16376481 127.17877293 139.12974548 129.78071594 C139.17180447 137.16507181 139.77769277 141.03372836 144.74609375 146.56640625 C148.27867272 154.65922354 148.17888514 165.83464711 145.12109375 174.12890625 C140.91096076 182.90247011 134.57665823 187.96126042 125.80859375 191.87890625 C121.75139258 192.78970651 117.88492199 192.73195938 113.74609375 192.56640625 C113.61654297 193.42298828 113.61654297 193.42298828 113.484375 194.296875 C109.80750508 215.51477572 97.78376053 234.41566071 80.546875 247.17578125 C79.95261719 247.6346875 79.35835937 248.09359375 78.74609375 248.56640625 C78.74609375 248.89640625 78.74609375 249.22640625 78.74609375 249.56640625 C79.9993042 249.77209229 81.25251465 249.97777832 82.54370117 250.18969727 C87.3049793 250.97589131 92.06218128 251.78484122 96.81860352 252.59985352 C98.85666004 252.94599886 100.89570226 253.28640193 102.93579102 253.62036133 C136.62684742 259.14825487 166.8711817 270.98374467 188.28125 298.7578125 C203.26464176 319.70372036 211.30400123 342.53959787 211.08666992 368.39624023 C211.0858207 369.80730165 211.08630453 371.21836439 211.08799744 372.62942505 C211.08884732 376.40746243 211.07138784 380.18520566 211.05027556 383.96317554 C211.03133794 387.93092471 211.02974502 391.89868293 211.02619934 395.86647034 C211.01692849 403.3565119 210.99238299 410.84641984 210.96215087 418.33640295 C210.92845104 426.87344972 210.91208195 435.41050336 210.89706457 443.94760025 C210.86582812 461.48728133 210.81255116 479.02682447 210.74609375 496.56640625 C205.46609375 496.56640625 200.18609375 496.56640625 194.74609375 496.56640625 C194.73578629 494.99390106 194.72547882 493.42139587 194.71485901 491.80123901 C194.61687057 476.94225519 194.5141675 462.08331228 194.40675449 447.22439384 C194.35165901 439.58629661 194.29821814 431.94819471 194.2487793 424.31005859 C194.20564508 417.64663369 194.15929755 410.98323988 194.1092152 404.31986344 C194.08284724 400.79715445 194.05800422 397.27445068 194.03701973 393.75170517 C194.01343738 389.80301559 193.98267541 385.85439831 193.95141602 381.90576172 C193.94566055 380.75920105 193.93990509 379.61264038 193.93397522 378.43133545 C193.66490708 348.29819493 186.52536634 322.24224078 165.3515625 300.05078125 C145.88441186 281.48840073 122.44125645 275.32280141 96.74609375 270.56640625 C96.7203125 271.44039063 96.69453125 272.314375 96.66796875 273.21484375 C95.52040151 298.09618803 88.05320906 316.59510075 70.25390625 334.3671875 C67.94862378 336.38879814 65.90847994 337.65122977 63.18359375 339.00390625 C61.29127852 339.94155901 61.29127852 339.94155901 59.74609375 341.56640625 C59.11334362 344.26200327 59.11334362 344.26200327 59.03125 347.2265625 C58.96945557 348.22437744 58.90766113 349.22219238 58.84399414 350.25024414 C58.81168701 351.01457764 58.77937988 351.77891113 58.74609375 352.56640625 C59.81569336 352.54545898 60.88529297 352.52451172 61.98730469 352.50292969 C65.96047548 352.43045999 69.933588 352.38458162 73.90722656 352.34667969 C75.62607654 352.32657997 77.34485827 352.29929536 79.06347656 352.26464844 C81.53597864 352.21605591 84.00757585 352.1934219 86.48046875 352.17578125 C87.63068512 352.14481354 87.63068512 352.14481354 88.80413818 352.11322021 C91.95139765 352.11190039 94.24154195 352.25454802 96.94866943 353.92779541 C99.80040613 358.11413209 99.30272813 362.28629761 99.26367188 367.23828125 C99.27418579 368.86811951 99.27418579 368.86811951 99.28491211 370.53088379 C99.30253243 374.1263171 99.29085433 377.72096479 99.27734375 381.31640625 C99.28003748 383.81217602 99.28391891 386.30794477 99.28894043 388.80371094 C99.29484096 394.035889 99.28663521 399.26786233 99.26757812 404.5 C99.24580944 410.54637637 99.25286099 416.59221321 99.27488375 422.63857651 C99.29523222 428.45853591 99.29306669 434.27829045 99.28135681 440.0982666 C99.2786853 442.5734464 99.28197411 445.04863994 99.29127502 447.52380371 C99.30141484 450.98108584 99.28597394 454.43732682 99.26367188 457.89453125 C99.2717688 458.92114868 99.27986572 459.94776611 99.28820801 461.00549316 C99.27692871 461.94759644 99.26564941 462.88969971 99.25402832 463.86035156 C99.25176617 465.08591766 99.25176617 465.08591766 99.24945831 466.33624268 C98.54020862 469.47858315 97.30442388 470.64973099 94.74609375 472.56640625 C92.14111328 473.06977081 92.14111328 473.06977081 89.12890625 473.07434082 C87.98486328 473.08562012 86.84082031 473.09689941 85.66210938 473.10852051 C84.41107422 473.10042358 83.16003906 473.09232666 81.87109375 473.08398438 C80.5371016 473.08940593 79.20311545 473.09652879 77.86914062 473.10522461 C74.24924027 473.12345738 70.62979601 473.11639099 67.0098877 473.10370827 C63.22142305 473.0935802 59.43299743 473.1029734 55.64453125 473.10925293 C49.28248077 473.11652993 42.92061603 473.10694038 36.55859375 473.08789062 C29.20349238 473.06612161 21.84883452 473.07317296 14.4937439 473.09519625 C8.17854008 473.11334887 1.86346977 473.1159093 -4.45175171 473.10544157 C-8.22344228 473.09920581 -11.99492439 473.09837307 -15.76660156 473.11158752 C-19.31262978 473.1231436 -22.85808628 473.11512569 -26.40405273 473.0920105 C-28.32600112 473.08419939 -30.24799787 473.09608147 -32.16992188 473.10852051 C-33.31396484 473.09724121 -34.45800781 473.08596191 -35.63671875 473.07434082 C-36.63074707 473.07283272 -37.62477539 473.07132462 -38.64892578 473.06977081 C-42.03633028 472.4152172 -43.21210272 471.31491484 -45.25390625 468.56640625 C-45.75727081 466.33624268 -45.75727081 466.33624268 -45.76184082 463.86035156 C-45.77312012 462.91824829 -45.78439941 461.97614502 -45.79602051 461.00549316 C-45.78792358 459.97887573 -45.77982666 458.9522583 -45.77148438 457.89453125 C-45.77849365 456.80797241 -45.78550293 455.72141357 -45.79272461 454.60192871 C-45.81034493 451.0064954 -45.79866683 447.41184771 -45.78515625 443.81640625 C-45.78784998 441.32063648 -45.79173141 438.82486773 -45.79675293 436.32910156 C-45.80265346 431.0969235 -45.79444771 425.86495017 -45.77539062 420.6328125 C-45.75362194 414.58643613 -45.76067349 408.54059929 -45.78269625 402.49423599 C-45.80304472 396.67427659 -45.80087919 390.85452205 -45.78916931 385.0345459 C-45.7864978 382.5593661 -45.78978661 380.08417256 -45.79908752 377.60900879 C-45.80922734 374.15172666 -45.79378644 370.69548568 -45.77148438 367.23828125 C-45.7795813 366.21166382 -45.78767822 365.18504639 -45.79602051 364.12731934 C-45.7135767 357.24120041 -45.7135767 357.24120041 -43.45648193 353.92779541 C-40.10141877 351.8540657 -36.80444654 352.07303718 -32.98828125 352.17578125 C-32.19488342 352.18144104 -31.4014856 352.18710083 -30.58404541 352.19293213 C-28.05671152 352.21527478 -25.5308096 352.26546449 -23.00390625 352.31640625 C-21.28778093 352.33647411 -19.57163333 352.35472438 -17.85546875 352.37109375 C-13.65439845 352.4151323 -9.4543949 352.48414299 -5.25390625 352.56640625 C-5.17292717 345.4420818 -5.17292717 345.4420818 -8.15234375 339.34765625 C-8.96960938 338.92484375 -9.786875 338.50203125 -10.62890625 338.06640625 C-25.17755583 329.29564893 -35.17908621 314.94208435 -39.75 298.65185547 C-41.96008011 289.50529329 -43.35775927 279.97565909 -43.25390625 270.56640625 C-47.65362125 271.44380475 -52.04773201 272.34678219 -56.44140625 273.25390625 C-57.66794922 273.49818359 -58.89449219 273.74246094 -60.15820312 273.99414062 C-77.25268854 277.55737109 -92.89241239 284.18439296 -106.25390625 295.56640625 C-106.99125 296.159375 -107.72859375 296.75234375 -108.48828125 297.36328125 C-114.83461671 302.65918877 -119.5702625 308.78534329 -124.25390625 315.56640625 C-124.79917969 316.33339844 -125.34445313 317.10039062 -125.90625 317.890625 C-138.54954231 337.10708784 -140.34713015 359.57435436 -140.45922852 381.90576172 C-140.47407791 383.78151382 -140.47407791 383.78151382 -140.48922729 385.69515991 C-140.51511889 389.07438294 -140.53709952 392.45358607 -140.55722928 395.83284521 C-140.57933862 399.38290081 -140.60660332 402.93291703 -140.63328552 406.48294067 C-140.68287963 413.18315374 -140.72793959 419.88338905 -140.77130789 426.58364499 C-140.82096775 434.22109342 -140.87577773 441.8585023 -140.93098748 449.49591231 C-141.0442955 465.18604048 -141.15106005 480.87620583 -141.25390625 496.56640625 C-146.53390625 496.56640625 -151.81390625 496.56640625 -157.25390625 496.56640625 C-157.32356999 478.18060171 -157.3770006 459.79484296 -157.40934277 441.40893459 C-157.4247638 432.8706403 -157.44576137 424.33242988 -157.48022461 415.79418945 C-157.51027375 408.3459411 -157.5295158 400.89775355 -157.53617173 393.44944626 C-157.54005792 389.51134555 -157.54908961 385.57341866 -157.57109642 381.63537407 C-157.5917078 377.91632834 -157.59769125 374.19752532 -157.59322929 370.47842789 C-157.59442711 368.48814519 -157.61043853 366.49788792 -157.62716675 364.50767517 C-157.52653657 334.64447112 -144.53382592 307.90233285 -123.94140625 286.81640625 C-117.91036179 280.84820361 -111.50843051 276.00347574 -104.25390625 271.56640625 C-103.68478516 271.21739258 -103.11566406 270.86837891 -102.52929688 270.50878906 C-85.280138 260.12291926 -66.19714083 256.46134882 -46.56640625 253.19140625 C-44.48481812 252.83454402 -42.40343617 252.476477 -40.32226562 252.1171875 C-35.30173634 251.25308441 -30.27873888 250.4051064 -25.25390625 249.56640625 C-28.24034527 246.55439207 -31.23765345 243.70763774 -34.50390625 241.00390625 C-47.59909527 229.3420215 -56.33247717 212.56786521 -60.25390625 195.56640625 C-60.25390625 194.57640625 -60.25390625 193.58640625 -60.25390625 192.56640625 C-61.55328125 192.64890625 -62.85265625 192.73140625 -64.19140625 192.81640625 C-72.67280142 192.7898188 -80.20734753 188.32251892 -86.25390625 182.56640625 C-91.4701792 175.94677052 -93.64796903 169.18567429 -93.62890625 160.75390625 C-93.6275769 159.69768066 -93.6275769 159.69768066 -93.6262207 158.62011719 C-93.47966678 152.15984149 -92.13608184 146.70105631 -87.70396423 141.88069153 C-85.72702892 138.72551268 -85.88209663 136.45128258 -85.88500977 132.7409668 C-85.88124329 132.06222 -85.87747681 131.38347321 -85.87359619 130.68415833 C-85.86717018 129.21207241 -85.86748774 127.73994499 -85.8737812 126.26785851 C-85.88292849 123.92339602 -85.87262147 121.57972745 -85.85716248 119.23530579 C-85.81719912 112.57021322 -85.81583681 105.90518274 -85.81811523 99.23999023 C-85.81816693 95.15678629 -85.79869757 91.07400327 -85.76878166 86.9909153 C-85.75812342 84.70724287 -85.76999391 82.42443546 -85.78260803 80.14079285 C-85.7504288 67.44307427 -83.48195244 55.52729557 -77.44140625 44.19140625 C-77.09883789 43.52713623 -76.75626953 42.86286621 -76.40332031 42.1784668 C-73.57011257 36.83388804 -70.2137006 32.13902591 -66.25390625 27.56640625 C-65.35865234 26.37724609 -65.35865234 26.37724609 -64.4453125 25.1640625 C-48.32874147 6.05974924 -23.9186144 -0.09061714 0 0 Z M-53.12890625 38.50390625 C-70.0024011 58.27610275 -69.57319368 80.90290024 -69.37890625 105.56640625 C-69.3688502 107.80598555 -69.35972902 110.04556926 -69.3515625 112.28515625 C-69.32977133 117.7123374 -69.29650435 123.13935056 -69.25390625 128.56640625 C-66.61390625 128.56640625 -63.97390625 128.56640625 -61.25390625 128.56640625 C-60.96515625 127.59703125 -60.67640625 126.62765625 -60.37890625 125.62890625 C-59.25390625 122.56640625 -59.25390625 122.56640625 -57.25390625 121.56640625 C-55.19370914 121.45608548 -53.12997268 121.40989214 -51.06689453 121.39282227 C-49.76438751 121.37933243 -48.46188049 121.36584259 -47.11990356 121.35194397 C-46.07109701 121.34435405 -46.07109701 121.34435405 -45.00110245 121.33661079 C-42.80483968 121.32016741 -40.60874577 121.29692019 -38.41256714 121.27171326 C-32.16673279 121.20108788 -25.9208236 121.14129349 -19.67480469 121.08959961 C-15.85334089 121.05749242 -12.03206223 121.01612486 -8.21075058 120.96940422 C-6.76375601 120.95355152 -5.31671875 120.94115446 -3.86966324 120.93249702 C13.10156351 120.82962957 27.8646253 119.2468314 40.4375 106.90625 C46.32376631 100.42988181 49.0831055 93.00025939 51.81640625 84.7890625 C52.74609375 82.56640625 52.74609375 82.56640625 54.74609375 81.56640625 C58.93997277 80.89238998 61.36587247 80.72463586 65.0390625 82.96484375 C67.68959069 85.08353676 70.21818946 87.30271794 72.74609375 89.56640625 C74.33153694 90.92118458 75.92660121 92.26400668 77.52270508 93.60620117 C79.19448232 95.01306942 80.85924147 96.42792688 82.5234375 97.84375 C85.40338287 100.28575892 88.31719042 102.68320834 91.24609375 105.06640625 C95.42163294 108.46937872 99.56462465 111.90786488 103.68359375 115.37890625 C104.22757813 115.83523437 104.7715625 116.2915625 105.33203125 116.76171875 C114.12116972 124.19193806 114.12116972 124.19193806 114.74609375 128.56640625 C117.38609375 128.56640625 120.02609375 128.56640625 122.74609375 128.56640625 C122.7959628 123.07122075 122.83203296 117.57617037 122.85595703 112.08081055 C122.86594285 110.21587831 122.87953621 108.35096144 122.89697266 106.48608398 C123.46580945 85.78753335 123.46580945 85.78753335 114.74609375 67.56640625 C107.16743652 60.12783511 99.47462979 57.58747742 89.1640625 56.19140625 C86.31958124 55.45616069 85.37965803 55.00660631 83.74609375 52.56640625 C83.0078125 49.34375 83.0078125 49.34375 82.43359375 45.50390625 C80.60604541 35.16023129 76.65200059 28.10774082 68.04296875 21.96875 C58.689193 16.2578563 48.78110469 16.40863215 38.12109375 16.3984375 C36.90139893 16.3951091 35.6817041 16.3917807 34.42504883 16.38835144 C31.84635799 16.38329853 29.26766063 16.38094261 26.68896484 16.38110352 C22.7873219 16.37892923 18.88596754 16.36078933 14.984375 16.34179688 C-11.89812247 16.27855661 -33.73645944 17.91559189 -53.12890625 38.50390625 Z M62.74609375 103.56640625 C61.74443401 105.17763874 60.77101038 106.80643023 59.80859375 108.44140625 C51.27917228 121.89164779 39.39936813 130.84587436 24.02131653 134.92460632 C17.81116245 136.14152398 11.53783991 136.05045106 5.234375 136.078125 C3.77034539 136.09500954 2.30632993 136.11316472 0.84233093 136.13252258 C-2.97317068 136.17961987 -6.78861487 136.20968759 -10.60430908 136.23596191 C-14.5130141 136.26597312 -18.4215219 136.31243163 -22.33007812 136.35742188 C-29.97125541 136.44299545 -37.61244779 136.51054238 -45.25390625 136.56640625 C-45.30408284 141.97003898 -45.33998514 147.37353029 -45.36376953 152.77734375 C-45.37370534 154.60809701 -45.38725862 156.43883493 -45.40478516 158.26953125 C-45.64682644 184.23913703 -43.04502307 206.49126127 -24.50390625 226.28515625 C-9.76572946 241.22802994 8.04643921 248.20691506 29.015625 248.6328125 C46.10419727 247.93746986 61.91949141 240.63853803 74.74609375 229.56640625 C75.41253906 228.99535156 76.07898438 228.42429687 76.765625 227.8359375 C94.69799567 211.24761039 98.32103382 189.07246677 99.3984375 165.765625 C99.48833205 162.89873596 99.55709357 160.03258164 99.61108398 157.16479492 C99.65966786 155.21440604 99.73514778 153.26451281 99.83666992 151.31616211 C100.83181333 139.3392336 100.83181333 139.3392336 95.98339844 128.92675781 C92.83111321 126.02878748 89.37296049 123.82822397 85.74609375 121.56640625 C83.84992196 120.05085564 81.97080084 118.51333016 80.12109375 116.94140625 C79.24453125 116.22855469 78.36796875 115.51570313 77.46484375 114.78125 C75.52072785 113.19746593 73.58347103 111.60725302 71.65234375 110.0078125 C70.65203125 109.18152344 69.65171875 108.35523437 68.62109375 107.50390625 C67.25597656 106.37275391 67.25597656 106.37275391 65.86328125 105.21875 C64.06231346 103.46386478 64.06231346 103.46386478 62.74609375 103.56640625 Z M-72.25390625 149.56640625 C-76.19017557 153.9170197 -76.89274544 157.48417631 -76.63671875 163.16796875 C-75.82821329 168.23350298 -73.17812329 170.81916694 -69.31640625 173.94140625 C-66.09560199 175.95700276 -66.09560199 175.95700276 -61.25390625 175.56640625 C-61.25390625 165.66640625 -61.25390625 155.76640625 -61.25390625 145.56640625 C-66.80795545 145.56640625 -68.06138221 146.17670596 -72.25390625 149.56640625 Z M114.74609375 145.56640625 C114.74609375 155.46640625 114.74609375 165.36640625 114.74609375 175.56640625 C122.20478224 174.50087932 122.93877848 174.37372152 127.74609375 169.56640625 C130.48253742 165.11151332 130.38919694 160.64692146 129.74609375 155.56640625 C127.41080174 150.71618439 124.48666235 148.08181 119.74609375 145.56640625 C118.09609375 145.56640625 116.44609375 145.56640625 114.74609375 145.56640625 Z M-4.25390625 259.56640625 C-3.27220141 267.72437345 -0.54720155 274.9403519 5.74609375 280.56640625 C15.14838581 287.09450171 22.28939158 288.44578555 33.74609375 287.56640625 C42.32003823 285.54152058 48.75150159 280.88883734 53.55859375 273.56640625 C56.25408611 268.92022862 57.74609375 264.99368081 57.74609375 259.56640625 C56.24949219 259.99953125 56.24949219 259.99953125 54.72265625 260.44140625 C35.17715971 265.66220903 15.13519289 265.17772176 -4.25390625 259.56640625 Z M-26.25390625 267.56640625 C-25.73132758 287.21536426 -22.08464134 304.31447715 -8.27182007 319.21112061 C-2.84819005 323.44391143 2.86784654 323.07080962 9.4765625 322.88671875 C10.88039421 322.88396332 12.28423829 322.88508398 13.68806458 322.88986206 C16.6134694 322.88804015 19.53512237 322.84892928 22.4597168 322.78076172 C26.19315362 322.69544935 29.92141763 322.69029811 33.65560436 322.71125984 C36.54810084 322.72104746 39.43944132 322.69554812 42.33168983 322.6588707 C43.70742487 322.64423585 45.08328999 322.63868738 46.45909691 322.64273453 C55.54629111 322.75912861 55.54629111 322.75912861 62.99853516 318.19360352 C64.50059604 316.40408467 64.50059604 316.40408467 65.74609375 314.56640625 C66.50277344 313.54160156 67.25945312 312.51679688 68.0390625 311.4609375 C76.54577596 297.62218097 79.99550427 283.79887402 79.74609375 267.56640625 C77.76609375 267.23640625 75.78609375 266.90640625 73.74609375 266.56640625 C73.32650391 267.92572266 73.32650391 267.92572266 72.8984375 269.3125 C68.51011009 282.64680677 61.37835733 292.78147608 48.68359375 299.37890625 C36.63357378 305.25354161 21.74880607 305.7063295 9.05859375 301.50390625 C-3.85934157 296.1062713 -12.92412494 286.41201199 -18.25390625 273.56640625 C-19.05138155 271.2362831 -19.6803444 268.96493762 -20.25390625 266.56640625 C-23.30661088 266.40829237 -23.30661088 266.40829237 -26.25390625 267.56640625 Z M10.74609375 336.56640625 C10.74609375 341.84640625 10.74609375 347.12640625 10.74609375 352.56640625 C21.30609375 352.56640625 31.86609375 352.56640625 42.74609375 352.56640625 C42.74609375 347.28640625 42.74609375 342.00640625 42.74609375 336.56640625 C32.18609375 336.56640625 21.62609375 336.56640625 10.74609375 336.56640625 Z M-29.25390625 368.56640625 C-29.25390625 397.60640625 -29.25390625 426.64640625 -29.25390625 456.56640625 C7.70609375 456.56640625 44.66609375 456.56640625 82.74609375 456.56640625 C82.74609375 427.52640625 82.74609375 398.48640625 82.74609375 368.56640625 C45.78609375 368.56640625 8.82609375 368.56640625 -29.25390625 368.56640625 Z " fill="#000000" transform="translate(229.25390625,7.43359375)"/>
<path d="M0 0 C26.4 0 52.8 0 80 0 C80 5.28 80 10.56 80 16 C77.36 16 74.72 16 72 16 C72.0314209 17.60439941 72.0314209 17.60439941 72.06347656 19.24121094 C72.13594626 23.21438173 72.18182463 27.18749425 72.21972656 31.16113281 C72.23982628 32.87998279 72.26711089 34.59876452 72.30175781 36.31738281 C72.35035034 38.78988489 72.37298435 41.2614821 72.390625 43.734375 C72.41127014 44.50118591 72.43191528 45.26799683 72.45318604 46.05804443 C72.45459042 49.40694218 72.38389021 51.49749915 70.31732178 54.20257568 C67.47182142 56.40968028 66.03871179 56.50591255 62.46875 56.51757812 C61.36080078 56.53018677 60.25285156 56.54279541 59.11132812 56.55578613 C57.91958984 56.54768921 56.72785156 56.53959229 55.5 56.53125 C53.65825195 56.53699036 53.65825195 56.53699036 51.77929688 56.54284668 C49.18358541 56.54556842 46.58784664 56.53818911 43.9921875 56.52148438 C40.01500401 56.50008075 36.03962718 56.52127963 32.0625 56.546875 C29.54166267 56.54423177 27.02082647 56.53910691 24.5 56.53125 C23.30826172 56.53934692 22.11652344 56.54744385 20.88867188 56.55578613 C19.22674805 56.53687317 19.22674805 56.53687317 17.53125 56.51757812 C16.55736328 56.51439575 15.58347656 56.51121338 14.58007812 56.50793457 C11.23847618 55.8500804 10.0477101 54.68039154 8 52 C7.6508995 49.1103488 7.5318438 46.6140729 7.609375 43.734375 C7.61503479 42.94097717 7.62069458 42.14757935 7.62652588 41.33013916 C7.64886853 38.80280527 7.69905824 36.27690335 7.75 33.75 C7.77006786 32.03387468 7.78831813 30.31772708 7.8046875 28.6015625 C7.84872605 24.4004922 7.91773674 20.20048865 8 16 C5.36 16 2.72 16 0 16 C0 10.72 0 5.44 0 0 Z M24 16 C24 23.92 24 31.84 24 40 C34.56 40 45.12 40 56 40 C56 32.08 56 24.16 56 16 C45.44 16 34.88 16 24 16 Z " fill="#000000" transform="translate(216,392)"/>
<path d="M0 0 C5.28 0 10.56 0 16 0 C16 34.32 16 68.64 16 104 C10.72 104 5.44 104 0 104 C0 69.68 0 35.36 0 0 Z " fill="#000000" transform="translate(360,400)"/>
<path d="M0 0 C5.28 0 10.56 0 16 0 C16 34.32 16 68.64 16 104 C10.72 104 5.44 104 0 104 C0 69.68 0 35.36 0 0 Z " fill="#000000" transform="translate(136,400)"/>
</svg>
