<?xml version="1.0" encoding="UTF-8"?>
<svg version="1.1" xmlns="http://www.w3.org/2000/svg" width="512" height="512">
<path d="M0 0 C22.89584636 19.42463203 35.42485505 48.13370791 38.72265625 77.53125 C41.92082671 117.53090306 22.90099689 148.49537075 3.39233398 181.76757812 C-1.12810585 189.47998665 -5.57553243 197.23235022 -10 205 C-15.7363633 215.06999933 -21.53067267 225.10426623 -27.39648438 235.09960938 C-30.6743916 240.69226608 -33.88119738 246.31698441 -37 252 C-35.78207764 251.90259521 -35.78207764 251.90259521 -34.53955078 251.80322266 C22.96668918 247.42449277 111.37127232 242.83002608 158.5 282.3125 C163.68729434 286.83361784 167.33596076 292.9837377 168.46396065 299.8061409 C168.63864199 302.88884474 168.66472915 305.93644998 168.63110352 309.02392578 C168.64183647 310.76248337 168.64183647 310.76248337 168.65278625 312.53616333 C168.66959511 316.33962284 168.65031687 320.1418909 168.62890625 323.9453125 C168.62973555 326.60230061 168.63214244 329.25924829 168.63621521 331.91622925 C168.64072108 337.47244811 168.62495758 343.02832866 168.59692383 348.58447266 C168.56484675 354.99103448 168.56490458 361.39698759 168.5821386 367.8035928 C168.59804622 373.99198099 168.59124513 380.18014785 168.57420158 386.36852646 C168.56902824 388.99111306 168.56949124 391.61371718 168.57574654 394.23630142 C168.58121059 397.90286951 168.56078404 401.56841212 168.53344727 405.23486328 C168.54323608 406.85128723 168.54323608 406.85128723 168.55322266 408.50036621 C168.44136256 417.34621149 165.99140077 423.43580757 160 430 C134.31940348 452.85253794 93.55911465 457.24872165 61 461 C59.46520996 461.18006592 59.46520996 461.18006592 57.89941406 461.36376953 C4.63905353 467.2708277 -53.56004759 464.67924875 -105 449 C-106.13953125 448.67386719 -107.2790625 448.34773438 -108.453125 448.01171875 C-119.88241577 444.54320404 -131.29945794 439.17257926 -140.30078125 431.25 C-142.05118294 429.7037164 -142.05118294 429.7037164 -145 430 C-147.06519258 431.66326574 -147.06519258 431.66326574 -149.25 433.875 C-173.31595527 456.02819871 -203.83435573 464.12295277 -235.97509766 463.14355469 C-265.14212592 461.75935674 -293.172075 448.10660998 -313.21484375 427 C-338.03928608 399.18793332 -345.8204989 366.71256776 -344 330 C-343.35659002 323.78873972 -341.89587223 317.93561888 -340 312 C-339.62230469 310.73542969 -339.24460937 309.47085937 -338.85546875 308.16796875 C-335.15957315 296.7281533 -328.91601212 286.54546627 -322.87548828 276.22021484 C-320.58729096 272.29137826 -318.33835129 268.34091219 -316.09153748 264.38830566 C-309.53844316 252.86127906 -302.9116953 241.37870023 -296.21679688 229.93334961 C-290.0622512 219.40945985 -283.97635497 208.84629398 -277.89111328 198.28222656 C-274.76319852 192.85340058 -271.63141552 187.42680719 -268.5 182 C-267.24998121 179.83334417 -265.99998122 177.6666775 -264.75 175.5 C-247.25 145.16666667 -229.75 114.83333333 -212.25 84.5 C-211.3213916 82.8902832 -211.3213916 82.8902832 -210.37402344 81.24804688 C-209.12757939 79.08771707 -207.88083598 76.92755997 -206.63378906 74.76757812 C-203.45186969 69.25535607 -200.27567286 63.73996208 -197.109375 58.21875 C-175.74689619 20.99645278 -175.74689619 20.99645278 -167 11 C-166.32839844 10.1853125 -165.65679687 9.370625 -164.96484375 8.53125 C-123.02897586 -40.78715725 -47.40413423 -39.44333126 0 0 Z M-152.50878906 26.28808594 C-156.68962997 31.08770225 -159.83045891 36.5143461 -163 42 C-163.52787109 42.90379395 -164.05574219 43.80758789 -164.59960938 44.73876953 C-168.10697339 50.74819594 -171.57951447 56.77699162 -175.03353882 62.81721497 C-178.5054048 68.8879479 -182.00233485 74.94410816 -185.5 81 C-186.74882971 83.16398645 -187.99752736 85.32804911 -189.24609375 87.4921875 C-189.86468262 88.56436523 -190.48327148 89.63654297 -191.12060547 90.74121094 C-193.00980166 94.01699566 -194.89764109 97.29355893 -196.78515625 100.5703125 C-202.97511174 111.31309166 -209.18390542 122.04412256 -215.4375 132.75 C-216.58473255 134.71739128 -217.73187186 136.68483693 -218.87890625 138.65234375 C-220.79603299 141.94059117 -222.72029904 145.22440706 -224.65234375 148.50390625 C-225.3935292 149.77326236 -226.13444211 151.04277767 -226.875 152.3125 C-227.49117188 153.36050781 -228.10734375 154.40851563 -228.7421875 155.48828125 C-230.22388487 157.97889763 -230.22388487 157.97889763 -230 161 C-229.36835938 161.35078613 -228.73671875 161.70157227 -228.0859375 162.06298828 C-214.33297865 169.70985139 -200.66630949 177.48090039 -187.08984375 185.4375 C-180.78429581 189.1321331 -174.45705564 192.78852681 -168.125 196.4375 C-167.04484619 197.06003662 -165.96469238 197.68257324 -164.85180664 198.32397461 C-162.66203666 199.58576826 -160.47217645 200.84740534 -158.28222656 202.10888672 C-152.85340058 205.23680148 -147.42680719 208.36858448 -142 211.5 C-139.83334417 212.75001879 -137.6666775 214.00001878 -135.5 215.25 C-131.16666667 217.75 -126.83333333 220.25 -122.5 222.75 C-121.42637207 223.36939453 -120.35274414 223.98878906 -119.24658203 224.62695312 C-117.09128689 225.8704051 -114.93601327 227.11389436 -112.78076172 228.35742188 C-107.77662326 231.24462875 -102.7722948 234.1315043 -97.76715088 237.01696777 C-96.01658759 238.02619104 -94.26609589 239.03553836 -92.515625 240.04492188 C-90.33607835 241.3016766 -88.15640168 242.55820586 -85.9765625 243.81445312 C-78.97138717 247.85416442 -71.98141493 251.9193684 -65 256 C-62.24253001 252.69461423 -59.97104527 249.41057543 -57.8984375 245.640625 C-57.33133057 244.61654541 -56.76422363 243.59246582 -56.17993164 242.53735352 C-55.5843042 241.45252686 -54.98867676 240.3677002 -54.375 239.25 C-50.34291726 231.97685707 -46.30986851 224.71249288 -42.0625 217.5625 C-37.92658363 210.59244414 -33.8587872 203.58498619 -29.8125 196.5625 C-29.17449463 195.45527588 -28.53648926 194.34805176 -27.87915039 193.20727539 C-26.57110523 190.93662932 -25.26324552 188.66587642 -23.95556641 186.39501953 C-21.42660375 182.00453829 -18.89477926 177.61571355 -16.36181641 173.22753906 C-15.12181899 171.07795004 -13.88320897 168.92756008 -12.64599609 166.77636719 C-9.77306897 161.7843642 -6.88914583 156.80021757 -3.95669556 151.84288025 C12.12734446 124.65209696 23.15997354 98.15612384 15.54345703 66.07714844 C9.05388354 41.0539515 -5.52038075 19.24252409 -27.94482422 5.83740234 C-36.95318319 0.64360288 -45.83651731 -3.5569849 -56 -6 C-57.22396484 -6.33451172 -57.22396484 -6.33451172 -58.47265625 -6.67578125 C-93.7869881 -14.90273336 -128.80073493 0.55808364 -152.50878906 26.28808594 Z M-242 179 C-243.50035341 180.84722401 -243.50035341 180.84722401 -244.828125 183.3359375 C-245.37267334 184.28452637 -245.91722168 185.23311523 -246.47827148 186.21044922 C-247.06294189 187.25475098 -247.6476123 188.29905273 -248.25 189.375 C-248.86625244 190.45410645 -249.48250488 191.53321289 -250.11743164 192.64501953 C-251.42591191 194.93680149 -252.7305369 197.23035742 -254.02978516 199.52734375 C-256.52264653 203.92120499 -259.05071335 208.29415419 -261.58105469 212.66650391 C-263.46279406 215.91871575 -265.33953298 219.17376501 -267.21484375 222.4296875 C-270.97355383 228.95486246 -274.73645979 235.47761008 -278.5 242 C-279.74609839 244.16015357 -280.99219214 246.32030983 -282.23828125 248.48046875 C-285.41692534 253.99028419 -288.5979599 259.49871606 -291.77954102 265.00683594 C-293.66004788 268.26493741 -295.53722972 271.52493728 -297.4140625 274.78515625 C-299.72729362 278.80185725 -302.05572481 282.80902383 -304.3984375 286.80859375 C-319.29559523 312.33787889 -328.47478313 338.41639385 -321.3125 368.3125 C-320.61526701 370.90809982 -319.82556275 373.43884823 -319 376 C-318.66097656 377.10859375 -318.32195312 378.2171875 -317.97265625 379.359375 C-310.02265232 402.55867473 -292.40999452 421.36515173 -270.72314453 432.33227539 C-246.65805969 443.94605814 -220.30854961 445.21543212 -195.07421875 436.71484375 C-180.01978579 431.2912189 -166.89048116 422.72673324 -156 411 C-155.15620789 410.18607788 -154.31241577 409.37215576 -153.4430542 408.53356934 C-149.97862695 404.32642171 -150.31419919 400.07069604 -150.38818359 394.82299805 C-150.38251877 393.81245361 -150.37685394 392.80190918 -150.37101746 391.76074219 C-150.35753744 388.42735463 -150.37844967 385.09505854 -150.3984375 381.76171875 C-150.39293581 379.43772132 -150.38480985 377.11372876 -150.37417603 374.78974915 C-150.35128649 368.67258643 -150.35550994 362.55578095 -150.36798096 356.43859863 C-150.38628094 346.65877056 -150.37625714 336.87915303 -150.34212112 327.09937477 C-150.3360344 323.69097992 -150.34925796 320.28303878 -150.36410522 316.87467957 C-150.36115557 314.77151372 -150.3574999 312.66834871 -150.35302734 310.56518555 C-150.36696281 309.15511986 -150.36696281 309.15511986 -150.38117981 307.71656799 C-150.32156576 297.76073974 -147.76355358 290.68045347 -140.8203125 283.48046875 C-128.47837716 272.62571952 -112.61579419 267.29849654 -97 263 C-97 262.34 -97 261.68 -97 261 C-98.06806885 260.39079712 -98.06806885 260.39079712 -99.15771484 259.76928711 C-115.39045455 250.50808466 -131.60059805 241.2092014 -147.78222656 231.85888672 C-152.10247643 229.36310656 -156.42422987 226.86993703 -160.74609375 224.37695312 C-163.99496496 222.50290437 -167.24357632 220.62840572 -170.4921875 218.75390625 C-174.85065388 216.23930564 -179.21012191 213.72645339 -183.5703125 211.21484375 C-196.23231844 203.91917926 -208.87465456 196.59108043 -221.4921875 189.21875 C-222.38260742 188.70054687 -223.27302734 188.18234375 -224.19042969 187.6484375 C-226.21940659 186.45799155 -228.2398844 185.25301894 -230.25488281 184.0390625 C-231.32834961 183.39710938 -232.40181641 182.75515625 -233.5078125 182.09375 C-234.97565186 181.20719727 -234.97565186 181.20719727 -236.47314453 180.30273438 C-238.97059646 178.77087981 -238.97059646 178.77087981 -242 179 Z M-128.8125 300.75 C-129.204375 301.1625 -129.59625 301.575 -130 302 C-129.23612591 306.49510524 -127.09575684 308.29990063 -123.67578125 311.13671875 C-113.87071253 317.96448193 -102.38938899 321.45145212 -90.95556641 324.47558594 C-89.15413718 324.95866583 -87.3634771 325.48144003 -85.57421875 326.0078125 C-84.55972656 326.29398437 -83.54523438 326.58015625 -82.5 326.875 C-81.6440625 327.11992187 -80.788125 327.36484375 -79.90625 327.6171875 C-71.09811468 328.77739887 -64.29599939 325.70498216 -56.42199707 321.97280884 C-53.00754523 320.3556338 -49.57199151 318.78400079 -46.140625 317.203125 C-45.40704773 316.86360306 -44.67347046 316.52408112 -43.91766357 316.17427063 C-35.08416512 312.09382784 -26.16636813 308.20753495 -17.25 304.3125 C-13.79129019 302.7990363 -10.33309505 301.28439902 -6.875 299.76953125 C-6.00083435 299.38672501 -5.1266687 299.00391876 -4.22601318 298.60951233 C2.52187438 295.65268435 9.26236831 292.67933552 16 289.69921875 C17.48055878 289.04437248 17.48055878 289.04437248 18.99102783 288.376297 C23.77946049 286.25785777 28.56722802 284.13792401 33.35449219 282.0168457 C35.08527975 281.25079864 36.81607368 280.48476598 38.546875 279.71875 C39.33143066 279.37063766 40.11598633 279.02252533 40.92431641 278.66386414 C44.59192059 277.04134507 48.26175027 275.45530673 52 274 C52 273.67 52 273.34 52 273 C0.40474709 268.03512729 -88.69674596 262.01754782 -128.8125 300.75 Z M85.21875 281.39453125 C84.33681221 281.78238297 84.33681221 281.78238297 83.4370575 282.17807007 C81.45568912 283.05099415 79.47791558 283.93178336 77.5 284.8125 C76.07614706 285.44165871 74.65206871 286.07030748 73.2277832 286.69848633 C70.13045208 288.06574341 67.03466018 289.43641072 63.93994141 290.80957031 C58.90423705 293.04362468 53.86452295 295.26853437 48.82421875 297.4921875 C35.86725016 303.21010229 22.9154286 308.93964505 9.96435547 314.67089844 C4.97470887 316.87896833 -0.01528285 319.08625675 -5.00546265 321.29312134 C-7.82271355 322.53937038 -10.63951253 323.78663684 -13.45629883 325.03393555 C-15.17657184 325.7948116 -16.89686687 326.55563786 -18.6171875 327.31640625 C-19.39538345 327.66134125 -20.17357941 328.00627625 -20.97535706 328.36166382 C-24.62618691 329.97489743 -28.27988718 331.55083819 -32 333 C-32 333.33 -32 333.66 -32 334 C-25.29629451 334.96113368 -18.63973243 335.31527034 -11.875 335.5625 C-10.75335449 335.6042334 -9.63170898 335.6459668 -8.47607422 335.68896484 C-0.64304903 335.96729569 7.162227 336.17972959 15 336 C15.90282715 335.98211426 16.8056543 335.96422852 17.73583984 335.94580078 C84.46382895 334.75222354 84.46382895 334.75222354 144.49609375 308.7734375 C146.47488583 306.44000476 146.9677669 305.06674931 147 302 C138.11814569 287.89476946 114.28964315 283.59736444 99.1875 280 C93.57176293 278.78742519 90.50413012 279.05361987 85.21875 281.39453125 Z M-130 332 C-130.11595023 342.19657388 -130.20474396 352.39299043 -130.25906086 362.5900898 C-130.28513303 367.32527104 -130.32048734 372.06000058 -130.37719727 376.79492188 C-130.43160235 381.36611228 -130.46143845 385.93686877 -130.47438622 390.508358 C-130.48361089 392.25068872 -130.50162498 393.99299622 -130.52865028 395.73514175 C-130.56505515 398.17957758 -130.56994081 400.62223037 -130.56762695 403.06689453 C-130.58560333 403.78403122 -130.60357971 404.50116791 -130.62210083 405.24003601 C-130.56412559 410.91638569 -128.8762024 413.15814395 -125 417 C-122.75463705 418.52114252 -120.70424746 419.78197161 -118.3125 421 C-117.66095947 421.33684814 -117.00941895 421.67369629 -116.33813477 422.02075195 C-97.67850961 431.32960362 -76.58547138 435.19169473 -56.125 438.1875 C-54.55226318 438.41977295 -54.55226318 438.41977295 -52.94775391 438.65673828 C-32.70594531 441.4494454 -12.48010324 442.3801503 7.9375 442.3125 C9.66506027 442.30976578 9.66506027 442.30976578 11.42752075 442.30697632 C82.09776268 443.14613321 82.09776268 443.14613321 144 415 C147.34528313 411.58373107 148.45777723 409.24055704 148.49768066 404.42791748 C148.48329956 403.71653625 148.46891846 403.00515503 148.45410156 402.2722168 C148.45468567 401.51070816 148.45526978 400.74919952 148.45587158 399.96461487 C148.45309498 397.45901173 148.42202469 394.95461287 148.390625 392.44921875 C148.38316106 390.70759226 148.37746885 388.96595736 148.37347412 387.22431946 C148.35822973 382.64892229 148.31895843 378.07403614 148.2746582 373.49884033 C148.23367959 368.82677116 148.21545759 364.15461911 148.1953125 359.48242188 C148.15246285 350.32139054 148.08422613 341.16073783 148 332 C144.24663704 333.23118537 140.66156254 334.56265358 137.0625 336.1875 C120.67472103 343.04278378 103.48386481 347.15277197 86 350 C85.17967285 350.13889648 84.3593457 350.27779297 83.51416016 350.42089844 C13.15185245 362.27579666 -63.5018808 358.62896636 -130 332 Z " fill="#000000" transform="translate(344,39)"/>
<path d="M0 0 C2.79659888 2.18271132 3.76939596 3.66006916 4.37109375 7.15625 C4.58483411 11.04243832 4.48474378 13.19168975 2.4375 16.60546875 C-0.55962127 19.54975615 -3.58685945 20.5888063 -7.5 21.8125 C-21.84213355 26.75215092 -32.11092914 35.14185767 -40.32421875 47.765625 C-42.58075322 50.77433762 -44.80035285 52.54607946 -48.3125 53.875 C-52.25669246 54.05845081 -54.59820882 52.95288012 -58 51 C-60.43745914 47.64849368 -61.04814085 45.83214906 -60.80859375 41.69140625 C-57.96303334 28.7008044 -44.74504361 17.1236345 -34.0625 10.1875 C-24.17618825 3.99316634 -12.02063043 -3.50408339 0 0 Z " fill="#000000" transform="translate(254,48)"/>
<path d="M0 0 C2.82275936 1.25455972 4.46288541 2.28384722 6.3125 4.75 C7.62625715 9.04956885 7.56088935 12.67157786 5.8125 16.8125 C3.61527842 19.46431915 2.35695235 20.23705628 -1 21 C-5.28454152 20.92349033 -7.41163441 20.43487892 -10.875 17.875 C-13.44480711 14.39820214 -14 12.30969005 -14 8 C-11.08614595 1.25212745 -7.23934947 -0.76203679 0 0 Z " fill="#000000" transform="translate(281,46)"/>
</svg>
