<?xml version="1.0" encoding="UTF-8"?>
<svg version="1.1" xmlns="http://www.w3.org/2000/svg" width="512" height="512">
<path d="M0 0 C8.07365437 4.11713198 15.91741782 8.49451975 23.67797852 13.18359375 C26.03958779 14.59915665 28.40361803 16.01065137 30.76782227 17.421875 C31.36269943 17.77748001 31.9575766 18.13308502 32.57048035 18.49946594 C38.75516994 22.19046535 44.99484291 25.78437062 51.24047852 29.37109375 C53.37475842 30.60127572 55.50887479 31.83174146 57.64282227 33.0625 C60.80458894 34.88570852 63.96770314 36.7063255 67.13549805 38.51904297 C70.1968244 40.27288367 73.2505438 42.0393352 76.30297852 43.80859375 C77.67643433 44.58916138 77.67643433 44.58916138 79.07763672 45.38549805 C84.63641611 48.62666224 88.40368077 51.48982705 91.24047852 57.43359375 C92.55092293 63.62842188 92.26155378 67.47816464 88.90844727 73.0234375 C86.3874018 76.6848484 83.6713446 80.1875242 80.92797852 83.68359375 C80.18032227 84.66714844 79.43266602 85.65070313 78.66235352 86.6640625 C70.89998416 96.6929252 70.89998416 96.6929252 64.92797852 98.68359375 C58.03366944 99.2883577 53.16756908 97.54766811 46.92797852 94.68359375 C45.44297852 99.13859375 45.44297852 99.13859375 43.92797852 103.68359375 C44.61891602 103.93625 45.30985352 104.18890625 46.02172852 104.44921875 C54.56876948 108.07941357 63.65025391 113.12814454 67.92797852 121.68359375 C69.16505808 130.56237997 66.71646971 136.32566826 61.92797852 143.68359375 C61.50258789 144.35132813 61.07719727 145.0190625 60.63891602 145.70703125 C59.76218743 147.05050743 58.85032827 148.3710191 57.92797852 149.68359375 C59.49729464 153.53555152 61.9783817 155.80103322 64.92797852 158.68359375 C68.86773965 162.6342382 71.3642128 166.5035139 73.74047852 171.55859375 C76.97651721 177.85008863 81.15674795 182.23954765 86.24047852 187.12109375 C93.51360416 194.11967353 99.62174215 201.09722362 104.92797852 209.68359375 C105.31920898 210.31620117 105.71043945 210.94880859 106.11352539 211.60058594 C113.47722157 223.70831652 118.80936714 236.23898101 122.67797852 249.87109375 C122.97623535 250.92079346 122.97623535 250.92079346 123.28051758 251.99169922 C126.54547879 264.09109666 127.3007806 275.78952219 127.24047852 288.24609375 C127.23832336 289.04483917 127.23616821 289.84358459 127.23394775 290.66653442 C127.18238743 302.56758022 126.79439402 314.07886037 123.92797852 325.68359375 C123.62996338 326.92737793 123.62996338 326.92737793 123.32592773 328.19628906 C120.18155685 340.98575265 115.74352408 352.88047789 109.92797852 364.68359375 C109.60571289 365.34584961 109.28344727 366.00810547 108.95141602 366.69042969 C89.67813941 405.88334279 54.19225408 436.69656355 13.19750977 451.44140625 C-2.20360357 456.66823791 -19.2258444 460.93184576 -35.57202148 460.74609375 C-36.61358398 460.73707031 -37.65514648 460.72804688 -38.72827148 460.71875 C-39.88842773 460.70134766 -39.88842773 460.70134766 -41.07202148 460.68359375 C-41.05107422 461.31861816 -41.03012695 461.95364258 -41.00854492 462.60791016 C-40.92497568 465.50797451 -40.87323375 468.40778491 -40.82202148 471.30859375 C-40.78850586 472.30761719 -40.75499023 473.30664062 -40.72045898 474.3359375 C-40.64153303 480.29484738 -40.82651117 484.11474987 -45.07202148 488.68359375 C-50.53080499 493.44820206 -55.40034259 493.2523081 -62.44984436 493.19825745 C-63.60144387 493.20520297 -64.75304338 493.2121485 -65.93953985 493.2193045 C-69.12773118 493.23441797 -72.31532227 493.23163304 -75.50351369 493.22115147 C-78.94544785 493.21415405 -82.38728699 493.23016197 -85.82919312 493.2431488 C-92.57055265 493.26478936 -99.31174337 493.26466109 -106.05312622 493.25652326 C-111.53629808 493.25021976 -117.01942075 493.25136352 -122.50259209 493.25779533 C-123.28345298 493.25869699 -124.06431387 493.25959864 -124.86883722 493.26052762 C-126.45530452 493.26237888 -128.04177181 493.26424144 -129.62823909 493.26611518 C-144.50727784 493.28269561 -159.38622179 493.27397433 -174.26525485 493.2571296 C-187.85851277 493.2424515 -201.45154927 493.25703388 -215.04477865 493.28589977 C-229.0153988 493.31534494 -242.98591695 493.32624994 -256.95656675 493.31671757 C-258.53929132 493.31569507 -260.12201592 493.31470045 -261.70474052 493.31373405 C-262.87270656 493.31301947 -262.87270656 493.31301947 -264.06426786 493.31229045 C-269.53304351 493.31013202 -275.00172202 493.31990052 -280.47047615 493.33450508 C-287.14695944 493.35208638 -293.82316117 493.35182941 -300.49963368 493.32915343 C-303.90199465 493.31805964 -307.30345595 493.31747143 -310.70585823 493.33345413 C-329.69221297 493.41555877 -343.39035206 492.68377159 -357.74389648 479.1015625 C-368.50356669 467.7040768 -369.57496766 455.13115762 -369.19737506 440.37426949 C-368.85980206 433.12836949 -367.62022174 426.00547993 -366.42578125 418.86132812 C-366.14035493 417.08185374 -365.85630989 415.30215734 -365.57351685 413.52226257 C-364.81269675 408.75858518 -364.03282575 403.99821556 -363.24900937 399.23827553 C-362.42819596 394.23320054 -361.62517843 389.22526933 -360.8200531 384.21765137 C-359.4692004 375.83108073 -358.10715398 367.44639634 -356.73681641 359.06298828 C-354.80360425 347.23598494 -352.89036705 335.40581443 -350.98127663 323.57489681 C-348.42254977 307.72436047 -345.85808218 291.874716 -343.27077103 276.02881813 C-342.99164258 274.31803937 -342.71307788 272.60716853 -342.43511391 270.89620018 C-342.05612095 268.56435929 -341.67498408 266.23287917 -341.29322815 263.90148926 C-341.18330349 263.22252138 -341.07337883 262.5435535 -340.96012312 261.84401083 C-340.45147296 258.7522724 -339.89911571 255.70730821 -339.07202148 252.68359375 C-339.91764648 252.73 -340.76327148 252.77640625 -341.63452148 252.82421875 C-348.67789647 253.04832614 -354.37891499 253.16566663 -360.07202148 248.68359375 C-365.59467996 243.43487667 -369.08148062 238.81420781 -369.36254883 231.02026367 C-369.38919616 229.15165864 -369.40360506 227.28285245 -369.40795898 225.4140625 C-369.41461578 224.41909256 -369.42127258 223.42412262 -369.4281311 222.39900208 C-369.43824046 220.29686324 -369.44294866 218.19469242 -369.44262695 216.0925293 C-369.44699225 212.89252203 -369.48330909 209.69390337 -369.52124023 206.49414062 C-369.52711047 204.44661927 -369.53107848 202.3990914 -369.53295898 200.3515625 C-369.54733002 199.40234421 -369.56170105 198.45312592 -369.57650757 197.47514343 C-369.5273175 190.2467396 -367.91241293 184.9249152 -363.10717773 179.44140625 C-362.45620117 178.90257812 -361.80522461 178.36375 -361.13452148 177.80859375 C-360.48612305 177.25429687 -359.83772461 176.7 -359.16967773 176.12890625 C-354.39189691 172.83695298 -350.51723387 172.45097296 -344.75952148 172.55859375 C-343.50526367 172.57664063 -342.25100586 172.5946875 -340.95874023 172.61328125 C-340.00612305 172.63648438 -339.05350586 172.6596875 -338.07202148 172.68359375 C-338.59151367 171.70261719 -339.11100586 170.72164062 -339.64624023 169.7109375 C-352.54822848 144.91967108 -358.59760277 115.86385213 -350.32592773 88.38671875 C-349.70524414 86.55367187 -349.70524414 86.55367187 -349.07202148 84.68359375 C-348.86303223 84.05388672 -348.65404297 83.42417969 -348.4387207 82.77539062 C-343.12085484 67.11258269 -334.63464471 54.38489911 -323.07202148 42.68359375 C-322.1071582 41.61044922 -322.1071582 41.61044922 -321.12280273 40.515625 C-306.6337881 24.76942906 -282.17807574 13.69608039 -260.90673828 12.5065918 C-230.88056218 11.9631022 -230.88056218 11.9631022 -217.07202148 16.68359375 C-216.44376465 16.89258301 -215.81550781 17.10157227 -215.16821289 17.31689453 C-199.50299138 22.63422754 -186.7749609 31.11935584 -175.07202148 42.68359375 C-174.3565918 43.32683594 -173.64116211 43.97007813 -172.90405273 44.6328125 C-157.1808165 59.10070053 -146.12446212 83.50322607 -144.89501953 104.74121094 C-144.41245875 130.24964318 -147.34262768 150.40715459 -160.07202148 172.68359375 C-153.47202148 172.68359375 -146.87202148 172.68359375 -140.07202148 172.68359375 C-139.41202148 171.03359375 -138.75202148 169.38359375 -138.07202148 167.68359375 C-137.07659752 165.93150442 -136.04042767 164.2022158 -134.97436523 162.4921875 C-134.3465918 161.47962891 -133.71881836 160.46707031 -133.07202148 159.42382812 C-132.39139648 158.33392578 -131.71077148 157.24402344 -131.00952148 156.12109375 C-129.54800018 153.76679249 -128.08941086 151.41067836 -126.63061523 149.0546875 C-126.25444061 148.44797211 -125.87826599 147.84125671 -125.49069214 147.21615601 C-121.47377698 140.731935 -117.52171029 134.20889403 -113.57202148 127.68359375 C-107.46339881 117.59896719 -101.30868243 107.54400583 -95.11352539 97.51220703 C-91.54695519 91.72989294 -88.00707278 85.93282285 -84.50170898 80.11328125 C-84.12008606 79.48069397 -83.73846313 78.84810669 -83.34527588 78.1963501 C-81.50171807 75.1404127 -79.66201325 72.08230426 -77.82983398 69.01953125 C-66.2690208 49.84112799 -66.2690208 49.84112799 -59.44702148 47.37109375 C-48.48136726 45.11054297 -39.86939988 52.0504898 -31.07202148 57.68359375 C-27.646232 54.50819819 -27.646232 54.50819819 -25.07202148 50.68359375 C-26.15483398 50.31234375 -26.15483398 50.31234375 -27.25952148 49.93359375 C-31.8914399 47.87496334 -34.89627697 45.68484143 -36.94702148 40.99609375 C-38.42629357 36.2256601 -38.81807692 32.43201281 -37.07202148 27.68359375 C-34.07282023 22.74475462 -30.63517061 18.22437205 -27.07202148 13.68359375 C-26.32436523 12.70003906 -25.57670898 11.71648438 -24.80639648 10.703125 C-18.21838556 2.19151547 -11.26678587 -4.82798294 0 0 Z M-7.07202148 15.68359375 C-9.24647275 18.4692758 -11.41022187 21.26308573 -13.57202148 24.05859375 C-14.19206055 24.85265625 -14.81209961 25.64671875 -15.45092773 26.46484375 C-16.03745117 27.22539063 -16.62397461 27.9859375 -17.22827148 28.76953125 C-17.77290039 29.47126465 -18.3175293 30.17299805 -18.87866211 30.89599609 C-20.25709627 32.60260591 -20.25709627 32.60260591 -20.07202148 34.68359375 C-18.16811955 36.07565699 -18.16811955 36.07565699 -15.66577148 37.44921875 C-14.70670898 38.00222656 -13.74764648 38.55523437 -12.75952148 39.125 C-11.70764648 39.72183594 -10.65577148 40.31867187 -9.57202148 40.93359375 C-7.35315894 42.20943971 -5.13441206 43.48548684 -2.91577148 44.76171875 C-1.77495117 45.41462891 -0.63413086 46.06753906 0.54125977 46.74023438 C5.68684855 49.69286462 10.8068859 52.68875059 15.92797852 55.68359375 C17.90832337 56.8387541 19.88879292 57.99370069 21.86938477 59.1484375 C26.06619376 61.59640489 30.26123523 64.0473722 34.45532227 66.5 C35.5284668 67.12712891 36.60161133 67.75425781 37.70727539 68.40039062 C39.74679477 69.59231753 41.78588813 70.78497384 43.82446289 71.97851562 C49.48667489 75.28637752 55.1797539 78.52744446 60.92797852 81.68359375 C63.10242978 78.8979117 65.2661789 76.10410177 67.42797852 73.30859375 C68.04801758 72.51453125 68.66805664 71.72046875 69.30688477 70.90234375 C69.8934082 70.14179687 70.47993164 69.38125 71.08422852 68.59765625 C71.90117187 67.54505615 71.90117187 67.54505615 72.73461914 66.47119141 C74.1130533 64.76458159 74.1130533 64.76458159 73.92797852 62.68359375 C72.02407658 61.29153051 72.02407658 61.29153051 69.52172852 59.91796875 C68.56266602 59.36496094 67.60360352 58.81195313 66.61547852 58.2421875 C65.56360352 57.64535156 64.51172852 57.04851562 63.42797852 56.43359375 C61.20911597 55.15774779 58.99036909 53.88170066 56.77172852 52.60546875 C55.06049805 51.62610352 55.06049805 51.62610352 53.31469727 50.62695312 C48.16910848 47.67432288 43.04907113 44.67843691 37.92797852 41.68359375 C35.94763366 40.5284334 33.96716411 39.37348681 31.98657227 38.21875 C27.78976327 35.77078261 23.5947218 33.3198153 19.40063477 30.8671875 C18.32749023 30.24005859 17.2543457 29.61292969 16.14868164 28.96679688 C14.10916226 27.77486997 12.0700689 26.58221366 10.03149414 25.38867188 C4.36928214 22.08080998 -1.32379687 18.83974304 -7.07202148 15.68359375 Z M-309.07202148 52.68359375 C-309.70366211 53.23402344 -310.33530273 53.78445312 -310.98608398 54.3515625 C-325.99569012 68.2303079 -335.48006694 89.69033221 -336.45092773 109.9140625 C-337.14544464 135.1966885 -330.76838368 156.45992391 -314.07202148 175.68359375 C-313.42620117 176.42996094 -312.78038086 177.17632812 -312.11499023 177.9453125 C-296.75680367 194.4028219 -273.95622847 203.70403271 -251.69311523 204.71484375 C-228.00964 204.51045561 -206.65896457 196.66375632 -189.07202148 180.68359375 C-188.44038086 180.13316406 -187.80874023 179.58273438 -187.15795898 179.015625 C-172.14835285 165.1368796 -162.66397603 143.67685529 -161.69311523 123.453125 C-160.99859833 98.170499 -167.37565929 76.90726359 -184.07202148 57.68359375 C-184.7178418 56.93722656 -185.36366211 56.19085938 -186.02905273 55.421875 C-201.3872393 38.9643656 -224.1878145 29.66315479 -246.45092773 28.65234375 C-270.13440297 28.85673189 -291.4850784 36.70343118 -309.07202148 52.68359375 Z M-11.07202148 60.68359375 C-12.39202148 62.99359375 -13.71202148 65.30359375 -15.07202148 67.68359375 C-7.56658989 72.87632805 0.22530423 77.57966659 8.05908203 82.25390625 C9.5246771 83.13047481 10.98786721 84.01107584 12.44873047 84.89550781 C14.57871451 86.18502705 16.71528031 87.46291267 18.85375977 88.73828125 C19.50484207 89.13506073 20.15592438 89.53184021 20.82673645 89.94064331 C24.23287201 91.9522337 25.86624849 92.68359375 29.92797852 92.68359375 C32.12936512 88.87931883 32.12936512 88.87931883 32.92797852 84.68359375 C32.21891357 84.27633057 31.50984863 83.86906738 30.77929688 83.44946289 C28.07566139 81.89566703 25.37265605 80.34078285 22.67019653 78.78494263 C21.4703851 78.0942958 20.27041441 77.40392556 19.07028198 76.71383667 C11.38320652 72.29215088 3.71296177 67.8487906 -3.79296875 63.12329102 C-6.48558391 61.46289237 -7.83423857 60.68359375 -11.07202148 60.68359375 Z M-55.07202148 64.68359375 C-56.38199097 66.44159546 -56.38199097 66.44159546 -57.65405273 68.7578125 C-58.42313965 70.08353271 -58.42313965 70.08353271 -59.20776367 71.43603516 C-60.03775879 72.88888916 -60.03775879 72.88888916 -60.88452148 74.37109375 C-62.07147155 76.41513907 -63.26031904 78.45808358 -64.45092773 80.5 C-65.05694824 81.54043457 -65.66296875 82.58086914 -66.28735352 83.65283203 C-68.89560989 88.08222938 -71.59995962 92.44850722 -74.32202148 96.80859375 C-79.40108022 104.96116602 -84.40882078 113.15516068 -89.38452148 121.37109375 C-94.91249458 130.49680897 -100.47093045 139.6024692 -106.07202148 148.68359375 C-111.5188677 157.52259425 -116.95528327 166.3678324 -122.35839844 175.23364258 C-123.12035385 176.4829909 -123.88335988 177.73169913 -124.64746094 178.97973633 C-125.70725021 180.71127903 -126.76278147 182.44542568 -127.81811523 184.1796875 C-128.72581665 185.66746704 -128.72581665 185.66746704 -129.65185547 187.18530273 C-131.181023 189.68740706 -131.181023 189.68740706 -132.07202148 192.68359375 C-131.18385742 193.23144531 -130.29569336 193.77929688 -129.38061523 194.34375 C-118.07075871 201.35141988 -106.93423138 208.61441188 -95.80200195 215.89990234 C-91.94103565 218.42254765 -88.07057785 220.93033699 -84.19702148 223.43359375 C-83.51905518 223.87179443 -82.84108887 224.30999512 -82.14257812 224.76147461 C-80.79524292 225.63211773 -79.44783161 226.50264306 -78.1003418 227.37304688 C-73.88636873 230.09579693 -69.67493283 232.82247112 -65.46313477 235.54858398 C-61.82356413 237.90407098 -58.18300637 240.25800938 -54.54077148 242.609375 C-53.79714355 243.08979248 -53.05351562 243.57020996 -52.28735352 244.06518555 C-50.83047803 245.00619802 -49.37313427 245.94648597 -47.9152832 246.88598633 C-43.46346504 249.76092198 -39.06355547 252.6975488 -34.73608398 255.7578125 C-32.95246337 256.92667643 -32.95246337 256.92667643 -30.07202148 256.68359375 C-27.62816472 253.86652913 -25.78733579 250.59738244 -23.82202148 247.43359375 C-23.25483398 246.56089844 -22.68764648 245.68820312 -22.10327148 244.7890625 C-21.57217773 243.94472656 -21.04108398 243.10039062 -20.49389648 242.23046875 C-19.76058105 241.06789551 -19.76058105 241.06789551 -19.01245117 239.88183594 C-17.90141582 237.28480523 -18.04005632 236.26938581 -19.07202148 233.68359375 C-20.30315216 231.88204492 -20.30315216 231.88204492 -21.82202148 230.12109375 C-32.08797827 216.89380327 -33.29940632 201.81143046 -32.07202148 185.68359375 C-31.26827992 181.33608258 -30.00431024 177.64924484 -28.07202148 173.68359375 C-27.60151367 172.71035156 -27.13100586 171.73710937 -26.64624023 170.734375 C-19.0306921 155.99523921 -7.31759305 148.04940622 8.07250977 142.5625 C13.06493659 141.42440878 17.76449952 141.43065243 22.86547852 141.49609375 C23.81616211 141.49673828 24.7668457 141.49738281 25.74633789 141.49804688 C31.29848699 141.53248474 36.34747976 141.98603141 41.92797852 142.68359375 C44.89797852 138.06359375 47.86797852 133.44359375 50.92797852 128.68359375 C47.55843952 125.31405476 44.56056879 123.06690516 40.52172852 120.734375 C39.8936731 120.36479172 39.26561768 119.99520844 38.61853027 119.61442566 C37.26520242 118.81879184 35.91028772 118.02585218 34.55395508 117.23535156 C30.91102359 115.11184212 27.27980664 112.96843285 23.64672852 110.828125 C22.907854 110.39360016 22.16897949 109.95907532 21.40771484 109.51138306 C14.54028936 105.46831386 7.72914866 101.33684823 0.92797852 97.18359375 C-10.79788487 90.03278667 -22.59224773 83.00172889 -34.41577148 76.01367188 C-35.70225992 75.25265506 -36.98871924 74.49158901 -38.27514648 73.73046875 C-38.88201294 73.37202881 -39.48887939 73.01358887 -40.11413574 72.64428711 C-43.40254753 70.69605565 -46.65058387 68.69840509 -49.86889648 66.63671875 C-52.731349 64.51005794 -52.731349 64.51005794 -55.07202148 64.68359375 Z M-8.88452148 172.93359375 C-15.97880213 182.75009837 -17.22558676 192.89820001 -16.07202148 204.68359375 C-13.81444239 215.46386789 -7.32746001 223.7946844 1.50219727 230.17578125 C11.47813751 236.37660723 22.70000282 237.40667664 34.08032227 235.0234375 C45.26506957 231.39976762 53.73052903 223.4948237 59.24829102 213.2265625 C63.29941702 203.77865674 63.52816832 192.50798911 60.36547852 182.74609375 C55.78889457 172.0727319 47.53884037 163.82267769 36.86547852 159.24609375 C19.44858463 153.60331326 2.72188062 159.15869189 -8.88452148 172.93359375 Z M-351.07202148 191.68359375 C-354.13712441 197.49136498 -353.40685128 204.01562617 -353.38769531 210.40307617 C-353.3845359 212.6110169 -353.40801811 214.81761529 -353.43334961 217.02539062 C-353.43562308 218.44140457 -353.43632587 219.85742209 -353.43530273 221.2734375 C-353.43828369 222.55081787 -353.44126465 223.82819824 -353.44433594 225.14428711 C-353.03254264 229.05888874 -352.26644272 231.41994967 -350.07202148 234.68359375 C-345.99598618 236.87160441 -342.12070558 236.96229394 -337.59928894 236.92410278 C-336.85589384 236.92581163 -336.11249874 236.92752048 -335.34657651 236.92928112 C-332.86067237 236.93257003 -330.37503935 236.92158228 -327.88916016 236.91064453 C-326.10519416 236.91008029 -324.32122769 236.91039723 -322.53726196 236.91152954 C-317.69676264 236.91210354 -312.85636237 236.90034153 -308.01588607 236.88638163 C-302.95634065 236.87388219 -297.89679298 236.87270439 -292.8372345 236.87033081 C-283.25735995 236.86411374 -273.67753103 236.84769982 -264.09767658 236.82763183 C-253.19088215 236.80527993 -242.28408555 236.79428118 -231.37727392 236.78424096 C-208.94216447 236.76333381 -186.50709554 236.72815338 -164.07202148 236.68359375 C-162.75202148 234.04359375 -161.43202148 231.40359375 -160.07202148 228.68359375 C-160.7590918 228.24789062 -161.44616211 227.8121875 -162.15405273 227.36328125 C-168.23051144 223.34708107 -172.03612213 220.74421682 -173.54858398 213.35546875 C-174.39630104 205.07206207 -170.64972308 199.99919148 -166.04077148 193.5546875 C-163.88351203 190.98889377 -163.88351203 190.98889377 -164.07202148 188.68359375 C-168.37308793 188.04901018 -172.41438533 187.46234904 -176.06030273 190.1484375 C-177.33718708 191.5292225 -178.59626028 192.92659454 -179.84155273 194.3359375 C-194.92674287 210.21369454 -220.23840401 219.29855036 -241.63842773 220.01953125 C-255.24319287 220.1951264 -268.06497488 219.91234209 -281.07202148 215.68359375 C-281.71880859 215.47460449 -282.3655957 215.26561523 -283.03198242 215.05029297 C-293.90519936 211.39393413 -306.33307334 206.08230929 -314.16577148 197.4375 C-320.4924704 190.4472712 -320.4924704 190.4472712 -329.34155273 187.81640625 C-340.77128708 187.38266761 -340.77128708 187.38266761 -351.07202148 191.68359375 Z M-151.07202148 200.68359375 C-153.05202148 203.65359375 -155.03202148 206.62359375 -157.07202148 209.68359375 C-153.66585861 212.48173414 -150.18807642 215.00278886 -146.49389648 217.40625 C-145.42389404 218.10411621 -144.3538916 218.80198242 -143.25146484 219.52099609 C-142.10836626 220.26277114 -140.96521743 221.00446876 -139.82202148 221.74609375 C-138.64293488 222.51363262 -137.46398079 223.28137511 -136.28515625 224.04931641 C-132.88310743 226.26434249 -129.47790584 228.47446974 -126.07202148 230.68359375 C-125.2127002 231.24127441 -124.35337891 231.79895508 -123.46801758 232.37353516 C-119.32830684 235.05891988 -115.18482852 237.73841558 -111.03881836 240.4140625 C-107.61095126 242.62668774 -104.18517961 244.8425506 -100.75952148 247.05859375 C-100.05947998 247.51129639 -99.35943848 247.96399902 -98.63818359 248.43041992 C-94.90015175 250.84894649 -91.16547718 253.2724952 -87.43530273 255.703125 C-70.38703201 266.81043647 -53.24214458 277.76578413 -36.07202148 288.68359375 C-32.81697745 285.58995686 -30.93762338 282.78791793 -29.07202148 278.68359375 C-29.70889893 278.2774585 -30.34577637 277.87132324 -31.00195312 277.45288086 C-44.63637497 268.7538198 -58.22979742 259.99778183 -71.76733398 251.1484375 C-78.51099655 246.74023725 -85.27618001 242.3655846 -92.04370117 237.99414062 C-95.55434944 235.72582576 -99.06306262 233.45452077 -102.57202148 231.18359375 C-103.98867942 230.2669136 -105.40534608 229.35024691 -106.82202148 228.43359375 C-115.32202148 222.93359375 -115.32202148 222.93359375 -117.44970703 221.55664062 C-118.85715961 220.64607887 -120.2648718 219.73591824 -121.67285156 218.82617188 C-125.35779516 216.44443483 -129.03709579 214.05454074 -132.70874023 211.65234375 C-133.47057617 211.15541016 -134.23241211 210.65847656 -135.01733398 210.14648438 C-136.46824458 209.19985368 -137.91757391 208.25079304 -139.36499023 207.29882812 C-143.16386448 204.82436609 -146.963517 202.62602822 -151.07202148 200.68359375 Z M78.92797852 205.68359375 C78.56446289 206.72257813 78.20094727 207.7615625 77.82641602 208.83203125 C70.92303613 228.14249268 70.92303613 228.14249268 63.92797852 234.68359375 C65.39297732 238.59506838 67.24802404 242.14177066 69.24047852 245.80859375 C80.9864592 269.12786545 81.70212411 298.88972865 73.92797852 323.68359375 C73.71898926 324.36196289 73.51 325.04033203 73.29467773 325.73925781 C62.94172733 358.23278754 40.62055002 383.82660102 10.52636719 399.55834961 C-5.7208251 407.66645488 -23.06067604 411.25412189 -41.07202148 412.68359375 C-41.31952148 413.90046875 -41.56702148 415.11734375 -41.82202148 416.37109375 C-42.97076782 420.94180981 -44.76747488 424.30303882 -48.92974854 426.79647827 C-51.26776013 427.76464915 -52.95180001 427.95794278 -55.47338867 428.00244141 C-56.76427399 428.03224594 -56.76427399 428.03224594 -58.08123779 428.06265259 C-59.46112885 428.0799794 -59.46112885 428.0799794 -60.86889648 428.09765625 C-62.2920517 428.12670547 -62.2920517 428.12670547 -63.74395752 428.15634155 C-66.76988782 428.21605034 -69.79585633 428.26248808 -72.82202148 428.30859375 C-74.87542335 428.34678152 -76.92880934 428.38583372 -78.98217773 428.42578125 C-84.01199644 428.52174483 -89.04189014 428.60580821 -94.07202148 428.68359375 C-93.78717302 430.41389666 -93.49382211 432.14280089 -93.19702148 433.87109375 C-93.03459961 434.83402344 -92.87217773 435.79695312 -92.70483398 436.7890625 C-92.09162632 439.59391979 -91.21535805 442.05584122 -90.07202148 444.68359375 C-83.97461228 444.70865424 -77.87723426 444.72662096 -71.77978516 444.73852539 C-69.71337358 444.74349774 -67.64696542 444.75027798 -65.58056641 444.7590332 C-14.85917894 444.9682697 29.42182271 433.58659824 66.38452148 397.25 C93.78641515 369.44067546 110.06355293 330.94294086 110.16821289 291.93530273 C110.17781553 289.78263129 110.20885036 287.63095967 110.24047852 285.47851562 C110.3395204 272.594671 108.55399549 260.10780668 104.36547852 247.87109375 C104.11572266 247.13737549 103.8659668 246.40365723 103.60864258 245.64770508 C99.35643542 233.75536359 90.94528106 211.69224502 78.92797852 205.68359375 Z M-146.07202148 238.68359375 C-147.39818419 240.34523298 -147.39818419 240.34523298 -148.67358398 242.515625 C-149.40834961 243.71348633 -149.40834961 243.71348633 -150.15795898 244.93554688 C-150.66584961 245.78052734 -151.17374023 246.62550781 -151.69702148 247.49609375 C-152.47045898 248.74616211 -152.47045898 248.74616211 -153.25952148 250.02148438 C-156.205698 254.52760475 -156.205698 254.52760475 -157.07202148 259.68359375 C-154.73732603 262.07885251 -151.94978375 263.9534867 -149.25952148 265.93359375 C-148.5215332 266.50078125 -147.78354492 267.06796875 -147.02319336 267.65234375 C-146.31098633 268.1834375 -145.5987793 268.71453125 -144.86499023 269.26171875 C-143.88308716 269.99503418 -143.88308716 269.99503418 -142.88134766 270.74316406 C-142.28427002 271.05350586 -141.68719238 271.36384766 -141.07202148 271.68359375 C-137.47234478 270.48370152 -137.20334483 269.69955567 -135.37280273 266.5 C-134.64287109 265.2325293 -134.64287109 265.2325293 -133.89819336 263.93945312 C-133.14892578 262.60624023 -133.14892578 262.60624023 -132.38452148 261.24609375 C-131.8734082 260.36115234 -131.36229492 259.47621094 -130.83569336 258.56445312 C-128.12982071 254.37263609 -128.12982071 254.37263609 -127.07202148 249.68359375 C-128.65191798 248.35993848 -128.65191798 248.35993848 -130.72045898 247.08203125 C-131.47842773 246.5921875 -132.23639648 246.10234375 -133.01733398 245.59765625 C-133.81913086 245.08976563 -134.62092773 244.581875 -135.44702148 244.05859375 C-136.63811523 243.28515625 -136.63811523 243.28515625 -137.85327148 242.49609375 C-141.67667149 239.72596422 -141.67667149 239.72596422 -146.07202148 238.68359375 Z M-4.07202148 246.68359375 C-5.86712439 249.43136485 -7.65749112 252.18219082 -9.44702148 254.93359375 C-9.95491211 255.71089844 -10.46280273 256.48820312 -10.98608398 257.2890625 C-11.72084961 258.42021484 -11.72084961 258.42021484 -12.47045898 259.57421875 C-12.9208252 260.26547852 -13.37119141 260.95673828 -13.83520508 261.66894531 C-15.03769953 263.62768677 -16.07724666 265.61283799 -17.07202148 267.68359375 C-16.08202148 268.82828125 -16.08202148 268.82828125 -15.07202148 269.99609375 C-12.70330375 273.72206945 -12.14587984 277.00942814 -12.29077148 281.3984375 C-14.21602212 289.49411642 -19.62341548 297.87595902 -26.05639648 303.11328125 C-31.09185497 305.73537233 -35.54507799 305.72114271 -41.07202148 304.68359375 C-44.45224997 303.0547585 -47.47664641 301.22865007 -50.57592773 299.1171875 C-51.39963867 298.64410156 -52.22334961 298.17101562 -53.07202148 297.68359375 C-57.01876492 298.9991749 -57.41164932 300.5283229 -59.43530273 304.109375 C-60.07532227 305.21603516 -60.7153418 306.32269531 -61.37475586 307.46289062 C-62.37974962 309.22450495 -63.38023344 310.98848007 -64.37548828 312.75561523 C-65.34187739 314.46364622 -66.32594811 316.16163424 -67.31030273 317.859375 C-67.88820557 318.87942627 -68.4661084 319.89947754 -69.06152344 320.95043945 C-71.78955635 324.65904036 -74.96336937 327.03066086 -79.38061523 328.3984375 C-80.0831543 328.47191406 -80.78569336 328.54539062 -81.50952148 328.62109375 C-82.20948242 328.71261719 -82.90944336 328.80414063 -83.63061523 328.8984375 C-91.07324102 328.24348643 -96.92298676 323.17906497 -102.69702148 318.87109375 C-103.52975586 318.26716797 -104.36249023 317.66324219 -105.22045898 317.04101562 C-115.92555431 309.12299528 -115.92555431 309.12299528 -118.07202148 302.68359375 C-119.7406073 289.57327666 -108.84026801 277.22386699 -102.07202148 266.68359375 C-106.98109663 262.24390295 -106.98109663 262.24390295 -113.07202148 260.68359375 C-114.71832772 262.79731975 -114.71832772 262.79731975 -116.21655273 265.57421875 C-116.81145508 266.59386719 -117.40635742 267.61351562 -118.01928711 268.6640625 C-119.25317467 270.8269188 -120.48497991 272.9909645 -121.71459961 275.15625 C-127.54306152 285.13176607 -127.54306152 285.13176607 -133.07202148 287.68359375 C-135.52124023 288.29296875 -135.52124023 288.29296875 -137.75952148 288.43359375 C-138.50588867 288.4903125 -139.25225586 288.54703125 -140.02124023 288.60546875 C-141.7038149 288.66956683 -143.38822634 288.68359375 -145.07202148 288.68359375 C-144.40926308 298.71369994 -142.74433396 308.56699102 -141.13061523 318.4765625 C-140.84025346 320.27682806 -140.55022501 322.07714741 -140.26051331 323.8775177 C-139.502674 328.58136111 -138.74035311 333.28446719 -137.97705078 337.98742676 C-137.1967196 342.80041986 -136.42069235 347.61410669 -135.64428711 352.42773438 C-134.12437593 361.84703248 -132.5997225 371.26555616 -131.07202148 380.68359375 C-130.08309906 380.68723938 -129.09417664 380.69088501 -128.07528687 380.69464111 C-118.74692454 380.73161298 -109.41889166 380.78940958 -100.09078026 380.86749649 C-95.29528833 380.90697359 -90.49998009 380.93916093 -85.7043457 380.95458984 C-81.07460232 380.9697549 -76.44536392 381.00419771 -71.81584549 381.05190277 C-70.05130024 381.06671813 -68.28668289 381.07463486 -66.52207565 381.0754776 C-64.04648003 381.0778486 -61.57227849 381.10493716 -59.09692383 381.13769531 C-58.3704364 381.13266495 -57.64394897 381.12763458 -56.89544678 381.12245178 C-51.84388748 381.2255974 -48.97154911 382.52090328 -45.07202148 385.68359375 C-42.66293105 388.92340502 -41.64105317 391.70037193 -41.07202148 395.68359375 C-15.21931046 397.04426275 9.31166335 383.69161952 28.17797852 367.18359375 C29.77505581 365.69823569 31.35925605 364.19886741 32.92797852 362.68359375 C33.5918457 362.04550781 34.25571289 361.40742188 34.93969727 360.75 C53.59029046 341.34279045 63.11010104 313.2994998 62.92797852 286.68359375 C62.43976523 272.07475015 58.38876532 259.24742953 50.92797852 246.68359375 C47.33912119 247.29133251 44.33580268 248.34256677 40.99047852 249.74609375 C26.1477962 254.72415736 10.15348582 252.39010098 -4.07202148 246.68359375 Z M-322.07202148 252.68359375 C-322.73202148 257.96359375 -323.39202148 263.24359375 -324.07202148 268.68359375 C-312.52202148 268.68359375 -300.97202148 268.68359375 -289.07202148 268.68359375 C-289.07202148 273.96359375 -289.07202148 279.24359375 -289.07202148 284.68359375 C-301.61202148 284.68359375 -314.15202148 284.68359375 -327.07202148 284.68359375 C-328.72202148 295.24359375 -330.37202148 305.80359375 -332.07202148 316.68359375 C-307.32202148 316.68359375 -282.57202148 316.68359375 -257.07202148 316.68359375 C-257.07202148 321.96359375 -257.07202148 327.24359375 -257.07202148 332.68359375 C-282.48202148 332.68359375 -307.89202148 332.68359375 -334.07202148 332.68359375 C-335.62027637 338.10248585 -336.7901844 343.16854371 -337.69702148 348.68359375 C-337.83108398 349.451875 -337.96514648 350.22015625 -338.10327148 351.01171875 C-338.29276367 352.14867187 -338.29276367 352.14867187 -338.48608398 353.30859375 C-338.59903809 353.98148437 -338.71199219 354.654375 -338.82836914 355.34765625 C-339.15132574 358.44389746 -339.07202148 361.57055494 -339.07202148 364.68359375 C-319.93202148 364.68359375 -300.79202148 364.68359375 -281.07202148 364.68359375 C-281.07202148 369.96359375 -281.07202148 375.24359375 -281.07202148 380.68359375 C-301.20202148 380.68359375 -321.33202148 380.68359375 -342.07202148 380.68359375 C-343.68337154 387.85847756 -343.68337154 387.85847756 -345.03344727 395.05712891 C-345.19346222 396.00907135 -345.35347717 396.96101379 -345.51834106 397.94180298 C-346.22943132 402.26092282 -346.93975185 406.58012673 -347.64086914 410.90087891 C-348.01002356 413.16280051 -348.38432893 415.4238878 -348.76391602 417.68408203 C-353.72764365 440.58506821 -353.72764365 440.58506821 -348.61499023 462.53515625 C-343.24675858 470.00990919 -337.11525756 474.6574969 -327.90159607 476.22190857 C-324.0211583 476.6897257 -320.30010215 476.80370856 -316.39257812 476.79711914 C-315.29376816 476.79733818 -315.29376816 476.79733818 -314.17276001 476.79756165 C-311.77586805 476.79687061 -309.37905594 476.78911651 -306.98217773 476.78125 C-305.31066429 476.77938294 -303.6391503 476.7779604 -301.96763611 476.77696228 C-297.58648139 476.77315978 -293.20536027 476.76334904 -288.82421875 476.7522583 C-284.34627741 476.74199525 -279.86833059 476.73745421 -275.39038086 476.73242188 C-266.61757905 476.72172458 -257.84480446 476.70467562 -249.07202148 476.68359375 C-249.06267578 476.04856934 -249.05333008 475.41354492 -249.04370117 474.75927734 C-248.98973416 471.85828575 -248.90614022 468.95886131 -248.82202148 466.05859375 C-248.8078418 465.05957031 -248.79366211 464.06054688 -248.77905273 463.03125 C-248.58436152 457.15157535 -248.21234624 453.20939702 -244.07202148 448.68359375 C-239.75401989 445.04354975 -235.44819049 445.21355192 -230.05249023 445.171875 C-229.19391922 445.1539238 -228.33534821 445.1359726 -227.45075989 445.11747742 C-224.72039638 445.06348634 -221.99020657 445.02951501 -219.25952148 444.99609375 C-217.40337758 444.96291075 -215.54725657 444.92842017 -213.69116211 444.89257812 C-209.15157411 444.80776641 -204.61203662 444.74090198 -200.07202148 444.68359375 C-198.14730832 439.34523836 -196.67310725 434.33379993 -196.07202148 428.68359375 C-197.34319824 428.67424805 -198.614375 428.66490234 -199.92407227 428.65527344 C-204.6544051 428.61530725 -209.38409211 428.54952961 -214.11401367 428.47607422 C-216.15852543 428.44790309 -218.20314532 428.4266694 -220.24780273 428.41259766 C-223.1923747 428.39111488 -226.1356519 428.34443685 -229.07983398 428.29296875 C-229.98943878 428.29174011 -230.89904358 428.29051147 -231.83621216 428.28924561 C-237.37086063 428.16240843 -240.76955134 427.50163641 -245.07202148 423.68359375 C-249.5142365 418.03472077 -248.54795405 411.61154701 -248.50952148 404.74609375 C-248.52950195 403.48345703 -248.54948242 402.22082031 -248.57006836 400.91992188 C-248.56389507 389.22153783 -248.56389507 389.22153783 -244.07202148 384.68359375 C-239.55413851 381.17964671 -235.63309591 381.24177529 -230.15087891 381.2512207 C-229.26257385 381.24102905 -228.3742688 381.2308374 -227.45904541 381.22033691 C-224.53179611 381.19021608 -221.60487412 381.18094231 -218.67749023 381.171875 C-216.64438287 381.15502765 -214.61128591 381.13687734 -212.57820129 381.11747742 C-207.23368585 381.06997747 -201.88921262 381.04016796 -196.54455566 381.01403809 C-191.08813133 380.98423264 -185.63185246 380.93770222 -180.17553711 380.89257812 C-169.47444133 380.80654499 -158.7733156 380.73919964 -148.07202148 380.68359375 C-149.50922031 368.39519544 -151.34254952 356.19231689 -153.29467773 343.9765625 C-153.60346525 342.03366059 -153.91209158 340.09073305 -154.2205658 338.14778137 C-154.86179719 334.1128122 -155.50490747 330.07814845 -156.14941406 326.04370117 C-156.9756893 320.87047739 -157.79721967 315.69651288 -158.61739445 310.52231884 C-159.25121835 306.52698934 -159.88747031 302.5320495 -160.52447319 298.53722572 C-160.82863026 296.62793094 -161.13203713 294.71851648 -161.43467903 292.80898094 C-161.85567855 290.15504949 -162.27993329 287.50165877 -162.70507812 284.84838867 C-162.8292511 284.06144623 -162.95342407 283.27450378 -163.08135986 282.4637146 C-164.0910571 275.6628856 -164.0910571 275.6628856 -168.50952148 270.80859375 C-171.52749352 268.27300249 -173.25764609 266.66498458 -174.07202148 262.68359375 C-174.07202148 259.38359375 -174.07202148 256.08359375 -174.07202148 252.68359375 C-222.91202148 252.68359375 -271.75202148 252.68359375 -322.07202148 252.68359375 Z M-88.07202148 275.68359375 C-89.73931536 278.22636631 -91.35572787 280.78129721 -92.94702148 283.37109375 C-93.39432617 284.09232422 -93.84163086 284.81355469 -94.30249023 285.55664062 C-95.1732365 286.96293437 -96.0402145 288.3715696 -96.90307617 289.78271484 C-97.8805173 291.37217947 -98.88341395 292.94595327 -99.89233398 294.515625 C-101.31100388 296.71142536 -101.31100388 296.71142536 -101.07202148 299.68359375 C-98.73732603 302.07885251 -95.94978375 303.9534867 -93.25952148 305.93359375 C-92.5215332 306.50078125 -91.78354492 307.06796875 -91.02319336 307.65234375 C-90.31098633 308.1834375 -89.5987793 308.71453125 -88.86499023 309.26171875 C-87.88308716 309.99503418 -87.88308716 309.99503418 -86.88134766 310.74316406 C-86.28427002 311.05350586 -85.68719238 311.36384766 -85.07202148 311.68359375 C-81.26970231 310.41615403 -80.90741925 309.19047107 -78.93530273 305.7734375 C-78.35844727 304.78408203 -77.7815918 303.79472656 -77.18725586 302.77539062 C-76.59235352 301.73447266 -75.99745117 300.69355469 -75.38452148 299.62109375 C-74.77801758 298.57630859 -74.17151367 297.53152344 -73.54663086 296.45507812 C-72.04700864 293.86911539 -70.55592126 291.27860024 -69.07202148 288.68359375 C-72.63216315 284.86246426 -76.31823519 282.03794249 -80.82202148 279.37109375 C-81.41112305 279.01208984 -82.00022461 278.65308594 -82.60717773 278.28320312 C-85.16648197 276.46295293 -85.16648197 276.46295293 -88.07202148 275.68359375 Z M-233.07202148 396.68359375 C-233.07202148 401.96359375 -233.07202148 407.24359375 -233.07202148 412.68359375 C-174.99202148 412.68359375 -116.91202148 412.68359375 -57.07202148 412.68359375 C-57.07202148 407.40359375 -57.07202148 402.12359375 -57.07202148 396.68359375 C-115.15202148 396.68359375 -173.23202148 396.68359375 -233.07202148 396.68359375 Z M-178.07202148 428.68359375 C-181.22109268 437.23638015 -181.22109268 437.23638015 -182.07202148 444.68359375 C-157.65202148 444.68359375 -133.23202148 444.68359375 -108.07202148 444.68359375 C-109.54053041 434.53065764 -109.54053041 434.53065764 -112.07202148 428.68359375 C-133.85202148 428.68359375 -155.63202148 428.68359375 -178.07202148 428.68359375 Z M-233.07202148 460.68359375 C-233.07202148 465.96359375 -233.07202148 471.24359375 -233.07202148 476.68359375 C-174.99202148 476.68359375 -116.91202148 476.68359375 -57.07202148 476.68359375 C-57.07202148 471.40359375 -57.07202148 466.12359375 -57.07202148 460.68359375 C-115.15202148 460.68359375 -173.23202148 460.68359375 -233.07202148 460.68359375 Z " fill="#000000" transform="translate(377.072021484375,11.31640625)"/>
<path d="M0 0 C3.47775179 1.51553404 5.9557984 3.5773456 8.75 6.125 C9.54921875 6.84945312 10.3484375 7.57390625 11.171875 8.3203125 C11.77515625 8.87460938 12.3784375 9.42890625 13 10 C12.4165913 13.1705127 11.53089908 14.85649897 9.3046875 17.171875 C8.75731934 17.74953613 8.20995117 18.32719727 7.64599609 18.92236328 C6.76935303 19.82704346 6.76935303 19.82704346 5.875 20.75 C4.67626927 22.01224823 3.47834477 23.27526264 2.28125 24.5390625 C1.70761719 25.14137695 1.13398438 25.74369141 0.54296875 26.36425781 C-1.22954072 28.24334221 -2.93988439 30.16729216 -4.625 32.125 C-7.51744949 35.47793896 -10.50039093 38.74313802 -13.5 42 C-16.53892335 45.3002483 -19.56156156 48.6094941 -22.5 52 C-25.9067735 55.9308925 -29.43002785 59.75196573 -32.953125 63.578125 C-35.50555143 66.35494057 -38.02983288 69.14980717 -40.5 72 C-43.90128562 75.92456033 -47.41654798 79.74177717 -50.93774414 83.55834961 C-54.19626687 87.09786702 -57.36872029 90.69681569 -60.46484375 94.37890625 C-62.16331281 96.172455 -63.98953928 97.57140048 -66 99 C-73.05315269 90.50024553 -80.08197431 81.98978353 -86.85986328 73.26806641 C-89.38766695 70.02391142 -91.95633707 66.81983669 -94.5703125 63.64453125 C-95.47221313 62.54733765 -95.47221313 62.54733765 -96.39233398 61.42797852 C-97.56995803 59.9992305 -98.75163391 58.57381048 -99.93774414 57.15209961 C-100.46746826 56.50893799 -100.99719238 55.86577637 -101.54296875 55.203125 C-102.01758545 54.63239258 -102.49220215 54.06166016 -102.98120117 53.47363281 C-104 52 -104 52 -104 50 C-102.03062339 48.37643654 -100.06654852 46.86440434 -98 45.375 C-97.14148438 44.74464844 -97.14148438 44.74464844 -96.265625 44.1015625 C-94.84796067 43.06194199 -93.42450738 42.03022409 -92 41 C-88.80901499 42.37670681 -87.0025688 43.86657093 -84.828125 46.5625 C-84.24949707 47.27269287 -83.67086914 47.98288574 -83.07470703 48.71459961 C-82.17147705 49.8458728 -82.17147705 49.8458728 -81.25 51 C-80.63108887 51.76513916 -80.01217773 52.53027832 -79.37451172 53.31860352 C-78.14284321 54.84296646 -76.91409718 56.36969598 -75.68847656 57.89892578 C-74.23929769 59.70222731 -72.77756068 61.4934043 -71.3046875 63.27734375 C-70.58539063 64.15519531 -69.86609375 65.03304687 -69.125 65.9375 C-68.50882813 66.68902344 -67.89265625 67.44054687 -67.2578125 68.21484375 C-66 70 -66 70 -66 72 C-59.71724618 66.8299955 -54.35749451 61.10845955 -49 55 C-47.5024393 53.33114119 -46.00245254 51.66445611 -44.5 50 C-43.7575 49.175 -43.015 48.35 -42.25 47.5 C-34 38.33333333 -25.75 29.16666667 -17.5 20 C-16.39591797 18.77216797 -16.39591797 18.77216797 -15.26953125 17.51953125 C-13.70727799 15.78518814 -12.14199577 14.05357021 -10.57421875 12.32421875 C-9.78660156 11.45410156 -8.99898438 10.58398438 -8.1875 9.6875 C-7.47980469 8.90761719 -6.77210938 8.12773438 -6.04296875 7.32421875 C-3.94830256 4.94118551 -1.96288965 2.4922082 0 0 Z " fill="#000000" transform="translate(177,82)"/>
<path d="M0 0 C5.82485779 3.51996782 10.54466582 8.98962934 12.5625 15.5 C13.36764105 23.33608208 13.68710392 31.11922577 8.5625 37.5 C3.75801361 42.54521222 -0.59927055 46.10562995 -7.70703125 46.8359375 C-16.22326573 46.92983204 -22.11345494 46.6177288 -28.40234375 40.62890625 C-34.7841668 33.72505269 -35.91792252 28.29832071 -35.7421875 18.9453125 C-35.04689797 11.08319245 -31.38995981 6.95041296 -25.53515625 1.9453125 C-18.47077988 -2.92213491 -7.84396301 -3.47595223 0 0 Z M-16.8125 17.125 C-18.92456506 20.21186432 -19.04945145 21.8282913 -18.4375 25.5 C-16.9375 28 -16.9375 28 -14.4375 29.5 C-10.7657913 30.11195145 -9.14936432 29.98706506 -6.0625 27.875 C-3.95043494 24.78813568 -3.82554855 23.1717087 -4.4375 19.5 C-5.9375 17 -5.9375 17 -8.4375 15.5 C-12.1092087 14.88804855 -13.72563568 15.01293494 -16.8125 17.125 Z " fill="#000000" transform="translate(411.4375,185.5)"/>
<path d="M0 0 C5.28 0 10.56 0 16 0 C16 5.28 16 10.56 16 16 C10.72 16 5.44 16 0 16 C0 10.72 0 5.44 0 0 Z " fill="#000000" transform="translate(104,280)"/>
</svg>
